<svg width="128" height="128" viewBox="0 0 128 128" fill="none" xmlns="http://www.w3.org/2000/svg">
<circle cx="64" cy="64" r="64" fill="black"/>
<path fill-rule="evenodd" clip-rule="evenodd" d="M95.4692 32.0569C86.8346 33.4582 79.0729 36.7595 71.3086 42.3339C66.3916 45.864 60.2564 51.1258 60.2564 51.8126C60.2564 52.1421 68.0747 56.9943 68.598 56.9892C68.6751 56.9887 70.7493 55.0471 73.207 52.6747C78.1594 47.895 81.6323 45.5864 87.9151 42.8968C92.2173 41.056 98.8635 39.5128 102.493 39.5128C104.192 39.5128 105.116 39.0337 108.198 36.557C110.221 34.9315 112.233 33.3164 112.668 32.9683C113.371 32.4075 113.373 32.2769 112.69 31.8194C111.613 31.0992 100.421 31.2535 95.4692 32.0569ZM25.3005 32.2893C17.1013 33.3873 10.907 39.6434 10.907 46.8268C10.907 50.3702 11.7063 52.5107 14.0093 55.1334C16.3652 57.8168 19.504 59.2222 26.0716 60.5362C43.1517 63.9526 47.5982 66.4504 68.3029 84.2614C83.3344 97.192 94.6534 102.051 103.651 99.4348C111.599 97.1246 115.591 91.6263 115.182 83.554C114.93 78.5842 113.107 74.939 108.621 70.4358C105.817 67.6193 104.063 66.4211 99.2902 64.058C96.0578 62.4572 91.7937 60.5372 89.8146 59.7908C87.8355 59.0444 85.8795 58.1113 85.4682 57.7171C84.8164 57.0925 84.8493 56.9023 85.7253 56.2309C87.0603 55.209 91.3891 53.9064 93.452 53.9064C95.8969 53.9064 101.394 55.7405 103.413 57.2303C104.384 57.9469 105.387 58.5329 105.641 58.5329C106.502 58.5329 111.662 55.2121 111.662 54.6584C111.662 53.9927 108.88 51.3541 106.847 50.0926C106.037 49.5898 103.741 48.6229 101.745 47.9438C92.9508 44.9525 83.9158 47.5701 76.3628 55.2964C74.2896 57.4174 72.5937 59.343 72.5937 59.5764C72.5937 60.5223 82.4939 65.8263 89.3005 68.5272C96.0778 71.2167 96.7261 71.5287 96.4531 71.9703C93.452 73.879 88.9875 72.0495 82.6178 69.9994C79.2379 68.9117 71.1549 63.1362 62.9942 58.5329C52.6586 52.7025 48.2352 48.8537 41.7514 47.2591C33.9156 45.332 29.7389 45.1926 27.4257 46.4777C25.7456 47.4111 24.4051 48.4723 26.6823 48.8475C41.7514 50.0926 45.5949 54.9247 64.0223 65.6541C74.0464 71.4906 82.6178 79.1229 95.4558 79.8703C101.12 80.8136 101.986 81.1447 103.154 82.8117C105.125 85.6257 103.159 89.8302 99.338 90.975C96.504 91.8242 93.1503 91.1528 88.6867 88.8432C84.2813 86.5633 83.3426 85.8904 72.0226 76.896C62.0263 68.9533 59.5213 67.2322 52.5455 63.5136C45.4289 59.7198 40.9273 57.9011 33.9156 55.9868C23.1189 53.0392 22.904 52.9549 21.1855 50.9973C18.9334 48.4327 19.3066 46.2495 22.5077 43.2685C25.1895 40.7707 27.4878 40.2145 33.0088 40.7275C38.0815 41.1989 49.8133 45.4594 55.3692 48.8475C56.2195 49.3657 57.1782 49.7908 57.4995 49.7919C58.5476 49.7955 63.8177 44.9289 63.8368 44.2437C63.8465 43.8771 62.1085 42.4851 58.0891 40.5224C44.7339 34.0001 33.5306 31.1866 25.3005 32.2893ZM11.6575 62.6556C14.7598 65.9913 19.5914 68.3529 26.6823 69.8889C29.4562 70.4898 32.5945 71.3293 33.656 71.7534C41.2332 74.7848 38.5205 83.2122 30.0761 83.2055C27.0602 83.2035 24.7968 81.9224 22.8598 79.1229C22.0815 77.9981 21.2272 77.0692 20.9609 77.0584C20.1759 77.0266 13.4772 81.1539 13.4772 81.669C13.4772 83.0256 18.1531 87.7004 20.9275 89.1177C23.6622 90.5149 23.9337 91.2006 28.3849 91.2006C32.7646 91.2006 34.0914 90.5031 36.6098 89.2138C41.6336 86.642 45.4721 81.9014 46.2093 77.3597C46.6621 74.5668 45.1128 70.7433 42.5826 68.411C39.1605 65.2572 35.5817 65.6541 22.8598 62.6556C14.93 60.7866 11.5475 56.3034 10.2048 56.1312C8.64051 55.9302 7.37748 56.7589 11.6575 62.6556ZM49.2694 81.1909C46.546 86.9592 38.9873 95.9562 31.5977 102.226C29.8309 103.726 28.3849 105.264 28.3849 105.646C28.3849 106.461 29.0737 106.534 30.3198 105.851C30.8107 105.582 33.1785 104.463 35.5817 103.365C37.9849 102.267 41.5704 100.232 43.5495 98.8446C47.9118 95.7855 58.8139 82.2612 58.6062 81.3421C58.4669 80.7262 51.7667 75.1641 51.1709 75.1641C51.0213 75.1641 50.0811 79.4724 49.2694 81.1909Z" fill="white"/>
</svg>
