<svg width="208" height="147" viewBox="0 0 208 147" fill="none" xmlns="http://www.w3.org/2000/svg">
<path fill-rule="evenodd" clip-rule="evenodd" d="M169.366 1.947C152.569 4.673 137.47 11.095 122.366 21.939C112.801 28.806 100.866 39.042 100.866 40.378C100.866 41.019 116.075 50.458 117.093 50.448C117.243 50.447 121.278 46.67 126.059 42.055C135.693 32.757 142.449 28.266 154.671 23.034C163.04 19.453 175.969 16.451 183.03 16.451C186.334 16.451 188.132 15.519 194.128 10.701C198.063 7.53899 201.976 4.39699 202.824 3.71999C204.191 2.62899 204.195 2.37499 202.866 1.48499C200.771 0.0839912 178.999 0.383997 169.366 1.947ZM32.8659 2.39899C16.9159 4.53499 4.86595 16.705 4.86595 30.679C4.86595 37.572 6.42096 41.736 10.901 46.838C15.484 52.058 21.59 54.792 34.366 57.348C67.592 63.994 76.242 68.853 116.519 103.501C145.76 128.655 167.779 138.107 185.283 133.018C200.744 128.524 208.51 117.828 207.713 102.125C207.223 92.457 203.677 85.366 194.951 76.606C189.495 71.127 186.084 68.796 176.799 64.199C170.511 61.085 162.216 57.35 158.366 55.898C154.516 54.446 150.711 52.631 149.911 51.864C148.643 50.649 148.707 50.279 150.411 48.973C153.008 46.985 161.429 44.451 165.442 44.451C170.198 44.451 180.892 48.019 184.82 50.917C186.709 52.311 188.659 53.451 189.154 53.451C190.829 53.451 200.866 46.991 200.866 45.914C200.866 44.619 195.454 39.486 191.5 37.032C189.924 36.054 185.458 34.173 181.575 32.852C164.467 27.033 146.891 32.125 132.198 47.155C128.165 51.281 124.866 55.027 124.866 55.481C124.866 57.321 144.125 67.639 157.366 72.893C170.55 78.125 171.811 78.732 171.28 79.591C165.442 83.304 156.757 79.745 144.366 75.757C137.791 73.641 122.067 62.406 106.192 53.451C86.0859 42.109 77.481 34.622 64.868 31.52C49.625 27.7712 41.5 27.5 37 30C33.7317 31.8157 31.124 33.88 35.554 34.61C64.868 37.032 72.3449 46.432 108.192 67.304C127.692 78.6579 144.366 93.505 169.34 94.959C180.358 96.794 182.043 97.438 184.315 100.681C188.149 106.155 184.326 114.334 176.892 116.561C171.379 118.213 164.855 116.907 156.172 112.414C147.602 107.979 145.776 106.67 123.755 89.173C104.309 73.722 99.436 70.374 85.866 63.14C72.022 55.76 63.265 52.222 49.625 48.498C28.622 42.764 28.204 42.6 24.861 38.792C20.48 33.803 21.206 29.556 27.433 23.757C32.65 18.898 37.121 17.816 47.861 18.814C57.729 19.731 80.551 28.019 91.359 34.61C93.013 35.618 94.878 36.445 95.503 36.447C97.542 36.454 107.794 26.987 107.831 25.654C107.85 24.941 104.469 22.233 96.65 18.415C70.67 5.72699 48.8759 0.253993 32.8659 2.39899ZM6.32597 61.471C12.361 67.96 21.76 72.554 35.554 75.542C40.95 76.711 47.055 78.344 49.12 79.169C63.86 85.066 58.5829 101.46 42.1559 101.447C36.2889 101.443 31.886 98.951 28.118 93.505C26.604 91.317 24.942 89.51 24.424 89.489C22.897 89.427 9.86596 97.456 9.86596 98.458C9.86596 101.097 18.962 110.191 24.359 112.948C29.679 115.666 30.207 117 38.866 117C47.386 117 49.967 115.643 54.866 113.135C64.639 108.132 72.106 98.91 73.54 90.075C74.421 84.642 71.407 77.204 66.485 72.667C59.828 66.532 52.866 67.304 28.118 61.471C12.6919 57.8352 6.112 49.114 3.5 48.779C0.456996 48.388 -2 50 6.32597 61.471ZM79.493 97.528C74.195 108.749 59.491 126.251 45.116 138.448C41.679 141.365 38.866 144.358 38.866 145.101C38.866 146.686 40.206 146.828 42.63 145.5C43.585 144.976 48.191 142.8 52.866 140.663C57.541 138.527 64.516 134.569 68.366 131.87C76.852 125.919 98.06 99.61 97.656 97.822C97.385 96.624 84.3509 85.804 83.1919 85.804C82.9009 85.804 81.072 94.185 79.493 97.528Z" fill="white"/>
</svg>
