<svg width="54" height="54" viewBox="0 0 54 54" fill="none" xmlns="http://www.w3.org/2000/svg">
<g id="icon-VSCode">
<g id="Mask group">
<mask id="mask0_2_176" style="mask-type:luminance" maskUnits="userSpaceOnUse" x="0" y="0" width="54" height="54">
<g id="Group">
<path id="Vector" d="M38.2923 53.492C39.1428 53.8234 40.1127 53.8021 40.9712 53.3891L52.0889 48.0395C53.2571 47.4774 54 46.2948 54 44.9978V8.72394C54 7.42685 53.2571 6.24452 52.0889 5.68237L40.9712 0.332576C39.8446 -0.209521 38.526 -0.0767413 37.5374 0.642099C37.3961 0.744788 37.2615 0.859441 37.1353 0.985792L15.8517 20.4031L6.58108 13.366C5.71807 12.7109 4.51096 12.7645 3.70944 13.4936L0.736036 16.1984C-0.244378 17.0902 -0.245502 18.6326 0.733608 19.5259L8.77344 26.8607L0.733608 34.1957C-0.245502 35.089 -0.244378 36.6314 0.736036 37.5232L3.70944 40.2279C4.51096 40.9571 5.71807 41.0106 6.58108 40.3557L15.8517 33.3184L37.1353 52.7358C37.472 53.0727 37.8673 53.3264 38.2923 53.492ZM40.5082 14.6022L24.3589 26.8607L40.5082 39.1194V14.6022Z" fill="white"/>
</g>
</mask>
<g mask="url(#mask0_2_176)">
<path id="Vector_2" d="M52.1219 5.69073L40.9955 0.333572C39.7078 -0.286517 38.1686 -0.0249495 37.1577 0.985778L0.734054 34.1957C-0.245652 35.089 -0.244526 36.6314 0.736484 37.5232L3.71169 40.2279C4.51371 40.9571 5.72156 41.0107 6.58508 40.3557L50.4477 7.08052C51.9192 5.96419 54.0327 7.01374 54.0327 8.86079V8.73161C54.0327 7.43508 53.29 6.25318 52.1219 5.69073Z" fill="#0065A9"/>
</g>
</g>
<g id="Mask group_2">
<mask id="mask1_2_176" style="mask-type:luminance" maskUnits="userSpaceOnUse" x="0" y="0" width="54" height="54">
<g id="Group_2">
<path id="Vector_3" d="M38.2923 53.492C39.1428 53.8234 40.1127 53.8021 40.9712 53.3891L52.0889 48.0395C53.2571 47.4774 54 46.2948 54 44.9978V8.72394C54 7.42685 53.2571 6.24452 52.0889 5.68237L40.9712 0.332576C39.8446 -0.209521 38.526 -0.0767413 37.5374 0.642099C37.3961 0.744788 37.2615 0.859441 37.1353 0.985792L15.8517 20.4031L6.58108 13.366C5.71807 12.7109 4.51096 12.7645 3.70944 13.4936L0.736036 16.1984C-0.244378 17.0902 -0.245502 18.6326 0.733608 19.5259L8.77344 26.8607L0.733608 34.1957C-0.245502 35.089 -0.244378 36.6314 0.736036 37.5232L3.70944 40.2279C4.51096 40.9571 5.71807 41.0106 6.58108 40.3557L15.8517 33.3184L37.1353 52.7358C37.472 53.0727 37.8673 53.3264 38.2923 53.492ZM40.5082 14.6022L24.3589 26.8607L40.5082 39.1194V14.6022Z" fill="white"/>
</g>
</mask>
<g mask="url(#mask1_2_176)">
<path id="Vector_4" d="M52.1219 48.0309L40.9955 53.3881C39.7078 54.008 38.1686 53.7465 37.1577 52.7359L0.734054 19.5259C-0.245652 18.6326 -0.244526 17.0902 0.736484 16.1984L3.71169 13.4936C4.51371 12.7645 5.72156 12.7108 6.58508 13.366L50.4477 46.641C51.9192 47.7573 54.0327 46.7079 54.0327 44.8607V44.99C54.0327 46.2864 53.29 47.4683 52.1219 48.0309Z" fill="#007ACC"/>
</g>
</g>
<g id="Mask group_3">
<mask id="mask2_2_176" style="mask-type:luminance" maskUnits="userSpaceOnUse" x="0" y="0" width="54" height="54">
<g id="Group_3">
<path id="Vector_5" d="M38.2923 53.492C39.1428 53.8234 40.1127 53.8021 40.9712 53.3891L52.0889 48.0395C53.2571 47.4774 54 46.2948 54 44.9978V8.72394C54 7.42685 53.2571 6.24452 52.0889 5.68237L40.9712 0.332576C39.8446 -0.209521 38.526 -0.0767413 37.5374 0.642099C37.3961 0.744788 37.2615 0.859441 37.1353 0.985792L15.8517 20.4031L6.58108 13.366C5.71807 12.7109 4.51096 12.7645 3.70944 13.4936L0.736036 16.1984C-0.244378 17.0902 -0.245502 18.6326 0.733608 19.5259L8.77344 26.8607L0.733608 34.1957C-0.245502 35.089 -0.244378 36.6314 0.736036 37.5232L3.70944 40.2279C4.51096 40.9571 5.71807 41.0106 6.58108 40.3557L15.8517 33.3184L37.1353 52.7358C37.472 53.0727 37.8673 53.3264 38.2923 53.492ZM40.5082 14.6022L24.3589 26.8607L40.5082 39.1194V14.6022Z" fill="white"/>
</g>
</mask>
<g mask="url(#mask2_2_176)">
<path id="Vector_6" d="M40.9607 53.3924C39.6725 54.0119 38.1332 53.7501 37.1224 52.7393C38.3678 53.9847 40.4974 53.1025 40.4974 51.3412V2.38718C40.4974 0.625846 38.3678 -0.256241 37.1224 0.989215C38.1332 -0.021607 39.6725 -0.283544 40.9607 0.335998L52.0851 5.6858C53.2541 6.24795 53.9974 7.43027 53.9974 8.72737V45.0013C53.9974 46.2983 53.2541 47.4806 52.0851 48.0428L40.9607 53.3924Z" fill="#1F9CF0"/>
</g>
</g>
<g id="Mask group_4">
<mask id="mask3_2_176" style="mask-type:luminance" maskUnits="userSpaceOnUse" x="0" y="0" width="54" height="54">
<g id="Group_4">
<path id="Vector_7" d="M38.2923 53.492C39.1428 53.8234 40.1127 53.8021 40.9712 53.3891L52.0889 48.0395C53.2571 47.4774 54 46.2948 54 44.9978V8.72394C54 7.42685 53.2571 6.24452 52.0889 5.68237L40.9712 0.332576C39.8446 -0.209521 38.526 -0.0767413 37.5374 0.642099C37.3961 0.744788 37.2615 0.859441 37.1353 0.985792L15.8517 20.4031L6.58108 13.366C5.71807 12.7109 4.51096 12.7645 3.70944 13.4936L0.736036 16.1984C-0.244378 17.0902 -0.245502 18.6326 0.733608 19.5259L8.77344 26.8607L0.733608 34.1957C-0.245502 35.089 -0.244378 36.6314 0.736036 37.5232L3.70944 40.2279C4.51096 40.9571 5.71807 41.0106 6.58108 40.3557L15.8517 33.3184L37.1353 52.7358C37.472 53.0727 37.8673 53.3264 38.2923 53.492ZM40.5082 14.6022L24.3589 26.8607L40.5082 39.1194V14.6022Z" fill="white" fill-opacity="0.25"/>
</g>
</mask>
<g mask="url(#mask3_2_176)">
<path id="Vector_8" d="M38.2924 53.4921C39.1429 53.8232 40.1128 53.8021 40.9711 53.3891L52.0887 48.0393C53.2571 47.4772 54 46.2949 54 44.9978V8.72394C54 7.42684 53.2571 6.24451 52.089 5.68236L40.9711 0.332577C39.8447 -0.209522 38.5261 -0.0767416 37.5372 0.642098C37.3961 0.744787 37.2615 0.85944 37.1352 0.985791L15.8517 20.4031L6.58107 13.366C5.71808 12.7109 4.51095 12.7645 3.70943 13.4936L0.736036 16.1984C-0.244378 17.0902 -0.245502 18.6326 0.733608 19.5259L8.77345 26.8608L0.733608 34.1957C-0.245502 35.089 -0.244378 36.6314 0.736036 37.5233L3.70943 40.2279C4.51095 40.9571 5.71808 41.0107 6.58107 40.3557L15.8517 33.3184L37.1352 52.7359C37.4718 53.0727 37.8673 53.3265 38.2924 53.4921ZM40.5083 14.6022L24.3589 26.8608L40.5083 39.1194V14.6022Z" fill="url(#paint0_linear_2_176)" fill-opacity="0.25"/>
</g>
</g>
</g>
<defs>
<linearGradient id="paint0_linear_2_176" x1="6912.01" y1="0" x2="6912.01" y2="13645.3" gradientUnits="userSpaceOnUse">
<stop stop-color="white"/>
<stop offset="1" stop-color="white" stop-opacity="0"/>
</linearGradient>
</defs>
</svg>
