<svg width="54" height="54" viewBox="0 0 54 54" fill="none" xmlns="http://www.w3.org/2000/svg">
<g id="icon-python">
<path id="Vector" d="M26.8053 0C13.0968 9.76882e-07 13.9528 5.94486 13.9528 5.94486L13.9681 12.1037H27.0499V13.9528H8.7721C8.7721 13.9528 0 12.958 0 26.7901C-9.78997e-07 40.6221 7.65648 40.1316 7.65648 40.1316H12.2259V33.713C12.2259 33.713 11.9796 26.0565 19.7601 26.0565H32.7349C32.7349 26.0565 40.0246 26.1743 40.0246 19.0113V7.16745C40.0246 7.16745 41.1314 0 26.8053 0ZM19.592 4.14153C20.8936 4.14153 21.9455 5.19349 21.9455 6.49502C21.9455 7.79656 20.8936 8.84851 19.592 8.84851C18.2905 8.84851 17.2386 7.79656 17.2386 6.49502C17.2386 5.19349 18.2905 4.14153 19.592 4.14153Z" fill="url(#paint0_linear_2_142)"/>
<path id="Vector_2" d="M27.1946 53.7188C40.9032 53.7188 40.0471 47.7739 40.0471 47.7739L40.0319 41.6151H26.9501V39.766H45.2279C45.2279 39.766 54 40.7608 54 26.9287C54 13.0967 46.3435 13.5872 46.3435 13.5872H41.7741V20.0058C41.7741 20.0058 42.0204 27.6623 34.2398 27.6623H21.2651C21.2651 27.6623 13.9754 27.5445 13.9754 34.7075V46.5514C13.9754 46.5514 12.8686 53.7188 27.1946 53.7188ZM34.4079 49.5773C33.1064 49.5773 32.0544 48.5253 32.0544 47.2238C32.0544 45.9222 33.1064 44.8703 34.4079 44.8703C35.7095 44.8703 36.7614 45.9222 36.7614 47.2238C36.7614 48.5253 35.7095 49.5773 34.4079 49.5773Z" fill="url(#paint1_linear_2_142)"/>
</g>
<defs>
<linearGradient id="paint0_linear_2_142" x1="1328.51" y1="1232.12" x2="8179.13" y2="7987.9" gradientUnits="userSpaceOnUse">
<stop stop-color="#387EB8"/>
<stop offset="1" stop-color="#366994"/>
</linearGradient>
<linearGradient id="paint1_linear_2_142" x1="1974.79" y1="2119.68" x2="9331.62" y2="9047.14" gradientUnits="userSpaceOnUse">
<stop stop-color="#FFE052"/>
<stop offset="1" stop-color="#FFC331"/>
</linearGradient>
</defs>
</svg>
