<svg width="54" height="54" viewBox="0 0 54 54" fill="none" xmlns="http://www.w3.org/2000/svg">
<g id="icon-git">
<path id="Vector" d="M52.9815 24.5939L29.4043 1.0185C28.0475 -0.339501 25.8452 -0.339501 24.4866 1.0185L19.5908 5.9143L25.8013 12.1249C27.2446 11.6372 28.8995 11.9643 30.0501 13.1149C31.2061 14.2727 31.5307 15.9417 31.0313 17.3898L37.0167 23.3752C38.4647 22.8763 40.1356 23.1992 41.2921 24.3575C42.9085 25.9733 42.9085 28.5921 41.2921 30.209C39.6752 31.826 37.0564 31.826 35.4389 30.209C34.2231 28.992 33.9227 27.2063 34.5383 25.7084L28.9563 20.1265L28.9558 34.8157C29.3498 35.0112 29.7219 35.2713 30.0501 35.5984C31.6664 37.2141 31.6664 39.833 30.0501 41.4511C28.4332 43.0674 25.8132 43.0674 24.1986 41.4511C22.5823 39.833 22.5823 37.2141 24.1986 35.5984C24.5979 35.1996 25.0601 34.8981 25.553 34.6954V19.8694C25.0601 19.6679 24.5985 19.3681 24.1986 18.9664C22.9739 17.7435 22.6794 15.9465 23.3069 14.4427L17.1852 8.31984L1.01895 24.4849C-0.339649 25.8441 -0.339649 28.0464 1.01895 29.4044L24.5962 52.9805C25.9536 54.3385 28.1553 54.3385 29.5145 52.9805L52.9815 29.514C54.3395 28.1554 54.3395 25.9519 52.9815 24.5939Z" fill="#DE4C36"/>
</g>
</svg>
