<svg width="49" height="54" viewBox="0 0 49 54" fill="none" xmlns="http://www.w3.org/2000/svg">
<g id="icon-C#">
<path id="Vector" d="M48.0439 15.876C48.0435 14.968 47.8493 14.1657 47.4566 13.4771C47.0708 12.8 46.4932 12.2324 45.7183 11.7837C39.322 8.09558 32.9195 4.41872 26.5253 0.726832C24.8014 -0.268376 23.13 -0.232094 21.419 0.7774C18.873 2.27886 6.12652 9.58162 2.32823 11.7816C0.763983 12.6872 0.00281982 14.073 0.00244384 15.8743C0 23.2914 0.00244384 30.7083 0 38.1255C0 39.0136 0.186296 39.8003 0.561708 40.4786C0.947647 41.1762 1.53342 41.7593 2.32616 42.2182C6.12464 44.4182 18.8729 51.7204 21.4182 53.2222C23.13 54.2323 24.8014 54.2684 26.5258 53.2728C32.9202 49.5807 39.3231 45.9041 45.7203 42.2159C46.5131 41.7572 47.0989 41.1737 47.4848 40.4767C47.8596 39.7984 48.0463 39.0117 48.0463 38.1234C48.0463 38.1234 48.0463 23.2933 48.0439 15.876Z" fill="#A179DC"/>
<path id="Vector_2" d="M24.0967 26.9276L0.561707 40.4786C0.947646 41.1762 1.53342 41.7593 2.32616 42.2182C6.12464 44.4182 18.8729 51.7204 21.4182 53.2223C23.13 54.2323 24.8014 54.2684 26.5258 53.2728C32.9202 49.5807 39.3231 45.9041 45.7203 42.2159C46.5131 41.7573 47.0989 41.1737 47.4848 40.4767L24.0967 26.9276Z" fill="#280068"/>
<path id="Vector_3" d="M48.0439 15.876C48.0435 14.968 47.8493 14.1657 47.4566 13.4771L24.0967 26.9276L47.4848 40.4767C47.8597 39.7984 48.046 39.0117 48.0463 38.1234C48.0463 38.1234 48.0463 23.2933 48.0439 15.876Z" fill="#390091"/>
<g id="Group">
<path id="Vector_4" d="M37.9533 21.8618V24.3947H40.4862V21.8618H41.7526V24.3947H44.2855V25.6612H41.7526V28.1941H44.2855V29.4605H41.7526V31.9934H40.4862V29.4605H37.9533V31.9934H36.6869V29.4605H34.154V28.1941H36.6869V25.6612H34.154V24.3947H36.6869V21.8618H37.9533ZM40.4862 25.6612H37.9533V28.1941H40.4862V25.6612Z" fill="white"/>
<path id="Vector_5" d="M24.1483 9.14107C30.7549 9.14107 36.523 12.7291 39.6125 18.0622L39.5824 18.0109L31.8094 22.4866C30.2779 19.8935 27.4703 18.1437 24.2498 18.1076L24.1483 18.107C19.237 18.107 15.2554 22.0885 15.2554 26.9998C15.2554 28.6059 15.6835 30.1114 16.4282 31.4118C17.9611 34.0878 20.8427 35.8928 24.1483 35.8928C27.4743 35.8928 30.3724 34.0649 31.8975 31.3602L31.8604 31.4251L39.6218 35.9214C36.5661 41.2095 30.8771 44.7864 24.3473 44.8577L24.1483 44.8588C17.5209 44.8588 11.7364 41.2487 8.65464 35.8873C7.15017 33.27 6.28937 30.2356 6.28937 26.9998C6.28937 17.1368 14.2849 9.14107 24.1483 9.14107Z" fill="white"/>
</g>
</g>
</svg>
