<svg width="54" height="53" viewBox="0 0 54 53" fill="none" xmlns="http://www.w3.org/2000/svg">
<g id="icon-github">
<path id="Vector" d="M26.9966 0C12.0893 0 1.55806e-05 12.1365 1.55806e-05 27.108C-0.00607501 32.79 1.77363 38.3302 5.0876 42.9456C8.40157 47.5611 13.0822 51.0184 18.468 52.8289C19.818 53.0786 20.3108 52.2416 20.3108 51.5227C20.3108 50.8781 20.2871 49.1737 20.2736 46.9125C12.7643 48.5494 11.178 43.2776 11.178 43.2776C9.95289 40.1456 8.18102 39.312 8.18102 39.312C5.72739 37.6312 8.36327 37.665 8.36327 37.665C11.0734 37.8574 12.4976 40.4595 12.4976 40.4595C14.9074 44.6006 18.819 43.4059 20.358 42.7106C20.601 40.959 21.2996 39.7643 22.0725 39.0859C16.0785 38.4008 9.77401 36.0754 9.77401 25.6905C9.77401 22.7306 10.827 20.3107 12.555 18.414C12.2749 17.7289 11.3501 14.9715 12.8183 11.2421C12.8183 11.2421 15.0863 10.5131 20.2433 14.0197C22.4463 13.4177 24.7196 13.1113 27.0034 13.1085C29.2873 13.113 31.5605 13.4206 33.7635 14.0231C38.9171 10.5165 41.1818 11.2455 41.1818 11.2455C42.6533 14.9782 41.7285 17.7322 41.4518 18.4174C43.1831 20.3141 44.226 22.734 44.226 25.6939C44.226 36.1057 37.9148 38.3974 31.9005 39.069C32.8691 39.906 33.7331 41.5597 33.7331 44.0876C33.7331 47.7124 33.6994 50.6351 33.6994 51.5227C33.6994 52.2484 34.1854 53.0921 35.5556 52.8255C40.9362 51.0107 45.611 47.5521 48.9204 42.9378C52.2298 38.3234 54.0066 32.7864 54 27.108C54 12.1365 41.9108 0 26.9966 0Z" fill="#5C6BC0"/>
</g>
</svg>
