<svg width="54" height="54" viewBox="0 0 54 54" fill="none" xmlns="http://www.w3.org/2000/svg">
<g id="icon-postman">
<path id="Vector" fill-rule="evenodd" clip-rule="evenodd" d="M39.0476 13.8386C38.3344 13.8611 37.6684 14.1367 37.1621 14.643L22.9511 28.854L19.9147 25.8188C33.8963 11.8609 36.4489 11.7225 39.0476 13.8386ZM23.526 29.3591L37.6909 15.2865C38.4727 14.5283 39.7148 14.5283 40.4966 15.2865C40.887 15.678 41.094 16.2068 41.0715 16.7355C41.0479 17.2879 40.8184 17.793 40.4044 18.1609L25.434 31.3605L23.526 29.3591ZM24.5835 31.4977L21.0645 32.3944C20.9959 32.4405 20.9273 32.4405 20.8575 32.3944C20.8125 32.3258 20.8125 32.2335 20.8575 32.1649L22.9961 30.0263L24.5835 31.4977ZM15.615 30.0263L19.3635 26.2777L22.1917 29.1758L15.7759 30.555C15.6375 30.5786 15.5002 30.4864 15.4766 30.348C15.4541 30.2557 15.4766 30.1871 15.5464 30.1185L15.615 30.0263ZM4.00162 49.5022C3.9105 49.4797 3.81825 49.4111 3.79462 49.3414C3.77212 49.2491 3.77212 49.158 3.79462 49.0882L6.80738 46.053L10.7168 49.9399L4.00162 49.5022ZM11.7281 45.4781C11.43 45.639 11.2691 45.9619 11.3378 46.2836L11.9812 49.0433C12.0274 49.2266 11.9351 49.4111 11.7979 49.5022C11.6595 49.6181 11.4525 49.6181 11.3378 49.5022L7.42838 45.4781L19.4321 33.453L25.2506 32.211L28.0327 34.9931C23.0659 39.132 17.5928 42.6499 11.7518 45.4331V45.4781H11.7281ZM34.2619 28.9361C32.5069 30.7766 30.5651 32.6632 28.6076 34.533L25.9403 31.8656L40.9106 18.6896C41.0479 18.5749 41.1863 18.4376 41.301 18.2756C40.9714 21.1995 38.052 24.9604 34.2619 28.9361ZM40.2896 13.9073C38.0587 11.5853 38.151 7.90538 40.473 5.67563C42.5891 3.65175 45.855 3.51337 48.1309 5.35275L42.9795 10.4816C42.8422 10.6425 42.8422 10.872 42.9795 11.0329L46.9811 15.0109C44.7278 16.1145 42.0142 15.6544 40.266 13.8611L40.2896 13.9073ZM48.4988 13.9073C48.2231 14.1604 47.9475 14.4135 47.6246 14.6205L43.785 10.7797L48.6832 5.88263C50.7982 8.1585 50.7296 11.7 48.4988 13.9073ZM6.03562 40.1512C4.98375 40.8094 3.32437 40.0635 2.33325 38.4862C1.42875 37.0462 0 32.0738 0 27C0 19.845 2.84625 12.9713 7.90875 7.90875C12.9713 2.84625 19.845 0 27 0C30.4425 0 33.8512 0.6525 33.9041 0.673875C35.6321 1.37025 36.6615 2.86987 36.2025 4.02188C35.7435 5.17388 34.1752 5.6295 32.7037 5.04C32.7037 5.04 29.8687 4.5 27 4.5C21.0375 4.5 15.3112 6.87375 11.0925 11.0925C6.87375 15.3112 4.5 21.0375 4.5 27C4.5 31.23 5.6925 35.37 6.14925 36.099C7.13925 37.6774 7.0875 39.4931 6.03562 40.1512ZM50.4394 19.0519C51.6161 18.6514 52.9942 19.5818 53.5162 21.1275C53.5162 21.1275 54 24.0525 54 27C54 34.155 51.1538 41.0288 46.0913 46.0913C41.0288 51.1538 34.155 54 27 54C23.1187 54 19.2825 53.1675 17.8054 52.488C16.677 51.9694 16.1798 50.6329 16.695 49.5056C17.2103 48.3784 18.5456 47.8823 19.6762 48.3975C20.565 48.8025 23.7713 49.5 27 49.5C32.9625 49.5 38.6887 47.1262 42.9075 42.9075C47.1262 38.6887 49.5 32.9625 49.5 27C49.5 24.5475 49.1063 22.1062 49.1063 22.1062C48.6653 20.8215 49.2626 19.4524 50.4394 19.0519Z" fill="url(#paint0_linear_2_122)"/>
</g>
<defs>
<linearGradient id="paint0_linear_2_122" x1="0" y1="27" x2="54" y2="27" gradientUnits="userSpaceOnUse">
<stop stop-color="#FFE031"/>
<stop offset="0.986957" stop-color="#FC5252"/>
</linearGradient>
</defs>
</svg>
