<svg width="41" height="54" viewBox="0 0 41 54" fill="none" xmlns="http://www.w3.org/2000/svg">
<g id="icon-sql">
<path id="Vector" d="M17.0213 53.9651C11.9666 53.6008 6.97072 52.3285 3.9068 50.6252C2.16159 49.655 0.831987 48.4628 0.310242 47.4001L-0.000183105 46.7678V26.936V7.10417L0.245454 6.6054C1.34317 4.37676 4.84647 2.36762 9.73689 1.16212C11.397 0.752875 13.7935 0.345335 15.7486 0.139827C17.745 -0.0700772 23.0368 -0.0381417 25.0282 0.19614C30.3211 0.817985 34.8251 2.21014 37.6007 4.08231C38.6711 4.80429 39.7694 5.95952 40.1415 6.75471L40.4606 7.43648L40.4333 27.2083L40.406 46.9803L40.1499 47.5006C40.009 47.7867 39.5836 48.3496 39.2045 48.7515C36.8965 51.1981 31.946 53.0079 25.4525 53.779C24.129 53.9362 18.3791 54.063 17.0213 53.9651ZM26.3362 36.9719C26.3168 36.9212 25.5612 36.2481 24.6571 35.476C23.753 34.7038 22.9743 34.0358 22.9267 33.9914C22.8791 33.9471 23.0461 33.7901 23.2979 33.6425C23.5496 33.4949 24.032 33.0844 24.3698 32.7302C25.3576 31.6944 25.8236 30.4149 25.8236 28.7389C25.8236 27.089 25.321 25.7578 24.3142 24.7416C23.2995 23.7173 22.1345 23.2771 20.4379 23.2771C17.8227 23.2771 15.8142 24.8031 15.1732 27.2771C14.9526 28.128 14.9538 29.8475 15.1755 30.6021C15.7536 32.5702 17.3281 33.9997 19.2876 34.3353C19.9508 34.4489 20.0406 34.4979 20.4927 34.9922C20.7613 35.2859 21.3127 35.8722 21.7179 36.2951L22.4546 37.064H24.4131C25.4903 37.064 26.3557 37.0226 26.3362 36.9719ZM19.6198 31.4883C19.1483 31.2424 18.97 31.0516 18.7012 30.5051C18.4935 30.0829 18.458 29.8428 18.4557 28.845C18.4534 27.8311 18.4856 27.612 18.7024 27.1717C19.0572 26.4513 19.546 26.1103 20.3023 26.0556C21.3549 25.9792 21.9625 26.4958 22.281 27.7374C22.6714 29.2596 22.242 30.8779 21.3053 31.415C20.8138 31.6967 20.0808 31.7286 19.6198 31.4883ZM10.9388 34.3137C12.9922 33.9243 14.1578 32.7302 14.1578 31.016C14.1578 29.4952 13.4053 28.6091 11.3255 27.6806C10.1349 27.1491 9.7036 26.8155 9.7036 26.4257C9.7036 26.1026 10.1129 25.7485 10.5893 25.6596C11.0545 25.5727 12.2883 25.787 13.0169 26.0813L13.6276 26.3281V24.9762V23.6243L12.9647 23.4773C12.5551 23.3864 11.6943 23.3319 10.7111 23.3346C9.31846 23.3346 9.04578 23.3686 8.52169 23.5767C6.99084 24.1844 6.2644 25.2197 6.27602 26.7769C6.2869 28.2348 7.05598 29.1442 8.97003 29.9622C10.0994 30.4449 10.5521 30.8125 10.5521 31.2468C10.5521 32.1698 9.01412 32.2834 7.38584 31.4807C6.93992 31.2608 6.53928 31.0631 6.49553 31.0412C6.45179 31.0193 6.416 31.6508 6.416 32.4445C6.416 33.8812 6.41753 33.8881 6.67765 33.9872C7.6572 34.3596 9.82219 34.5255 10.9388 34.3137ZM34.4139 32.981V31.7614H32.558H30.702V27.5723V23.3832H29.0582H27.4144V28.7919V34.2006H30.9141H34.4139V32.981ZM22.9602 11.6086C26.2268 11.3821 28.6754 10.9543 30.8301 10.2339C32.9767 9.51615 34.2448 8.64769 34.5284 7.701C34.6377 7.3362 34.6298 7.19782 34.4771 6.79784C33.7923 5.00466 29.9667 3.62695 24.1208 3.06836C21.6202 2.82937 17.0725 2.90685 14.6882 3.22892C11.0502 3.72047 8.09769 4.63351 6.78491 5.673C4.12927 7.7759 6.93762 10.0888 13.4685 11.1775C16.3003 11.6495 19.9691 11.8162 22.9602 11.6086Z" fill="#F97E25"/>
</g>
</svg>
