<svg width="54" height="54" viewBox="0 0 54 54" fill="none" xmlns="http://www.w3.org/2000/svg">
<g id="icon-js">
<path id="Vector" d="M0 10C0 4.47715 4.47715 0 10 0H44C49.5228 0 54 4.47715 54 10V44C54 49.5228 49.5228 54 44 54H10C4.47715 54 0 49.5228 0 44V10Z" fill="#F7DF1E"/>
<path id="Vector_2" d="M14.1986 45.1263L18.331 42.6255C19.1283 44.039 19.8535 45.2349 21.5931 45.2349C23.2605 45.2349 24.3118 44.5827 24.3118 42.0455V24.7912H29.3865V42.1173C29.3865 47.3733 26.3055 49.7656 21.8106 49.7656C17.7511 49.7656 15.3946 47.6631 14.1985 45.1259" fill="black"/>
<path id="Vector_3" d="M32.1429 44.5826L36.2748 42.1902C37.3625 43.9665 38.7762 45.2714 41.2772 45.2714C43.3798 45.2714 44.7207 44.2201 44.7207 42.7701C44.7207 41.0302 43.3433 40.4139 41.0234 39.3993L39.7551 38.8552C36.0938 37.2969 33.6651 35.3395 33.6651 31.2071C33.6651 27.4011 36.5649 24.5011 41.0961 24.5011C44.3222 24.5011 46.642 25.6249 48.3093 28.561L44.3582 31.0983C43.4882 29.5397 42.546 28.9236 41.0961 28.9236C39.6099 28.9236 38.6674 29.866 38.6674 31.0983C38.6674 32.6207 39.6099 33.2371 41.7846 34.1796L43.0532 34.7233C47.3667 36.5721 49.7955 38.4567 49.7955 42.6976C49.7955 47.2652 46.2069 49.7661 41.386 49.7661C36.6738 49.7661 33.6288 47.5188 32.1429 44.5826Z" fill="black"/>
</g>
</svg>
