<svg width="54" height="22" viewBox="0 0 54 22" fill="none" xmlns="http://www.w3.org/2000/svg">
<g id="icon-MVC">
<path id="Vector" d="M18.7555 4.3928C20.7017 10.3441 21.4388 20.9602 27.1298 20.9602C27.5625 20.9602 28.0009 20.9179 28.4402 20.8342C23.2674 19.6283 22.6541 9.12761 19.4971 3.68915C19.2495 3.9143 19.0045 4.1487 18.7555 4.3928Z" fill="url(#paint0_linear_2_220)"/>
<path id="Vector_2" d="M19.4971 3.68922C22.6541 9.12724 23.2674 19.6279 28.4402 20.8343C28.8469 20.7598 29.254 20.6466 29.662 20.5043C25.0184 18.229 23.7353 8.03233 20.1501 3.12347C19.9333 3.30412 19.7152 3.49315 19.4971 3.68922Z" fill="url(#paint1_linear_2_220)"/>
<path id="Vector_3" d="M24.0456 0.455658C23.6138 0.455658 23.1745 0.497956 22.7339 0.581672C21.583 0.798894 20.4127 1.29458 19.2336 2.04494C19.5553 2.36306 19.8624 2.72657 20.1506 3.12356C21.3503 2.12822 22.5418 1.39284 23.7283 0.950463C24.1742 0.785234 24.6179 0.661423 25.0629 0.579469C24.7417 0.498396 24.4033 0.455658 24.0456 0.455658Z" fill="#14559A"/>
<path id="Vector_4" d="M33.2868 18.4073C33.7618 18.0297 34.2377 17.612 34.7144 17.156C32.737 11.2329 32.0289 0.46431 26.2983 0.46431C25.8885 0.46431 25.4752 0.502642 25.0628 0.578868C30.2828 1.87735 30.9516 13.2341 33.2868 18.4073Z" fill="url(#paint2_linear_2_220)"/>
<path id="Vector_5" d="M25.0633 0.579497C24.7421 0.497984 24.4032 0.455246 24.045 0.455246L26.2983 0.463616C25.889 0.463616 25.4757 0.501509 25.0633 0.579497Z" fill="#3092C4"/>
<path id="Vector_6" d="M33.1863 19.6654C32.9625 19.4517 32.7497 19.2173 32.5404 18.9675C31.5763 19.65 30.6158 20.1677 29.6619 20.5048C30.0016 20.6704 30.3571 20.7938 30.7352 20.87C31.0278 20.93 31.3313 20.9608 31.6495 20.9608C32.7206 20.9608 33.5674 20.8339 34.2874 20.4885C33.8909 20.2735 33.5269 19.9959 33.1863 19.6654Z" fill="#1969BC"/>
<path id="Vector_7" d="M23.7278 0.951358C28.4031 3.39675 28.8098 14.4711 32.5404 18.9675C32.7907 18.7913 33.0383 18.6044 33.2855 18.4075C30.9503 13.2343 30.2828 1.8762 25.0637 0.579041C24.6183 0.662316 24.1737 0.785688 23.7278 0.951358Z" fill="url(#paint3_linear_2_220)"/>
<path id="Vector_8" d="M20.1501 3.12349C23.7353 8.03234 25.0184 18.2294 29.662 20.5047C30.6164 20.1677 31.5769 19.6504 32.5405 18.9674C28.8099 14.471 28.4032 3.39711 23.7279 0.951279C22.5413 1.39277 21.3499 2.12815 20.1501 3.12349Z" fill="url(#paint4_linear_2_220)"/>
<path id="Vector_9" d="M16.4622 4.2496C15.9004 5.51989 15.3263 7.19024 14.6328 9.36995C16.0123 7.42553 17.3879 5.75077 18.7556 4.39324C18.567 3.81428 18.3647 3.27982 18.1466 2.8044C17.5875 3.23179 17.0235 3.71382 16.4622 4.2496Z" fill="url(#paint5_linear_2_220)"/>
<path id="Vector_10" d="M18.6449 2.43753C18.4801 2.55561 18.314 2.67634 18.147 2.80412C18.3651 3.27998 18.5669 3.814 18.755 4.39341C19.0036 4.15019 19.2503 3.9149 19.497 3.68975C19.2322 3.2346 18.9507 2.81469 18.6449 2.43753Z" fill="#2B74B1"/>
<path id="Vector_11" d="M19.2336 2.04449C19.0375 2.16875 18.8423 2.30005 18.6445 2.43708C18.9507 2.8138 19.2318 3.23459 19.4975 3.69018C19.7156 3.49278 19.9333 3.30288 20.1505 3.12311C19.8623 2.72656 19.5557 2.36262 19.2336 2.04449Z" fill="#125A9E"/>
<path id="Vector_12" d="M51.1241 0.00220353C48.48 10.1997 42.957 18.3907 38.327 20.4554H38.3178L38.0679 20.5625L38.0375 20.5743L37.9666 20.6017L37.9349 20.6149L37.819 20.6559L37.7714 20.6726L37.7137 20.6915L37.6582 20.7109L37.6088 20.7277L37.5101 20.7576L37.4678 20.7687L37.4013 20.7867L37.3559 20.7991L37.2832 20.818L37.1946 20.8374C37.4039 20.9145 37.622 20.9537 37.8569 20.9537C42.2476 20.9537 46.6748 13.0853 54 0H51.1237L51.1241 0.00220353Z" fill="url(#paint6_linear_2_220)"/>
<path id="Vector_13" d="M13.6788 0.869862L13.6871 0.862813L13.6973 0.856204H13.703L13.7739 0.828886L13.788 0.821835L13.8066 0.814346L13.8828 0.787028H13.8867L14.0555 0.727986L14.0806 0.721377L14.1529 0.699786L14.1859 0.689212L14.2586 0.667622L14.2864 0.660132L14.5278 0.597565L14.5609 0.590075L14.6314 0.576415L14.6657 0.565841L14.7367 0.552622H14.7534L14.9002 0.525304H14.9292L14.9971 0.513409L15.0354 0.506798L15.1002 0.497105L15.1359 0.490056L15.2936 0.475955C15.1416 0.461856 14.9856 0.452164 14.8261 0.452164C9.88115 0.452164 3.06842 9.62657 0 21.5081H0.591741C1.57386 19.7567 2.45597 18.0995 3.26273 16.5442C5.41247 8.12849 9.78994 2.38909 13.6788 0.868541" fill="url(#paint7_linear_2_220)"/>
<path id="Vector_14" d="M16.4622 4.24978C17.024 3.71399 17.5875 3.23196 18.1466 2.80413C18.0193 2.52478 17.8871 2.2657 17.7452 2.02821C17.2932 2.57722 16.8799 3.30158 16.4622 4.24978Z" fill="#0D82CA"/>
<path id="Vector_15" d="M16.8684 0.93895C17.1913 1.20948 17.4808 1.58224 17.7452 2.02858C17.8284 1.92636 17.913 1.83163 18.0007 1.74262C17.6333 1.39983 17.2367 1.11872 16.8058 0.906784L16.8587 0.931899L16.8684 0.93895Z" fill="#0D82CA"/>
<path id="Vector_16" d="M3.26315 16.5445C7.77193 7.8561 9.90801 2.35727 13.6792 0.868881C9.79081 2.39075 5.41245 8.12972 3.26315 16.5445Z" fill="url(#paint8_linear_2_220)"/>
<path id="Vector_17" d="M18.0002 1.74271C17.9126 1.83259 17.8288 1.92644 17.7447 2.02866C17.8866 2.26571 18.0183 2.52391 18.147 2.80414C18.3135 2.67636 18.4801 2.55607 18.6444 2.43755C18.4409 2.18596 18.2254 1.95244 18.0002 1.74271Z" fill="#127BCA"/>
<path id="Vector_18" d="M5.31031 21.4693L5.22835 21.479H5.21293L5.14331 21.486H5.13186L4.96619 21.497H4.94901C9.51198 21.3693 11.5983 19.0847 12.6333 15.7704C13.4198 13.2585 14.0661 11.1418 14.6323 9.36612C12.7209 12.0565 10.8008 15.2633 8.87045 18.8564C7.93987 20.5881 6.52419 21.3115 5.31031 21.4657" fill="url(#paint9_linear_2_220)"/>
<path id="Vector_19" d="M5.31035 21.4676C6.52423 21.3129 7.93992 20.5903 8.87049 18.8578C10.8008 15.2664 12.7219 12.0587 14.6315 9.36793C15.3263 7.18735 15.8996 5.51831 16.4618 4.24759C12.6553 7.87074 8.83436 13.8952 5.30991 21.4654" fill="url(#paint10_linear_2_220)"/>
<path id="Vector_20" d="M3.26325 16.545C2.45649 18.1004 1.57439 19.7575 0.591827 21.5089H2.31197C2.53977 19.7694 2.8623 18.1114 3.26281 16.5459" fill="#05A1E6"/>
<path id="Vector_21" d="M15.1359 0.49355L15.0994 0.500599L15.035 0.509852L14.9972 0.516462L14.9293 0.528357L14.9002 0.535408L14.7535 0.560963H14.7368L14.6654 0.575063L14.6297 0.584756L14.5605 0.598415L14.5279 0.606346L14.286 0.668912L14.2583 0.676844L14.1851 0.698434L14.1521 0.707687L14.0802 0.729277L14.0538 0.736326L13.8859 0.795369L13.8097 0.821804L13.778 0.835024L13.707 0.86146L13.6833 0.872916C9.9125 2.36086 7.77642 7.85969 3.26764 16.5481C2.86713 18.1132 2.54284 19.7716 2.3168 21.5112H2.55782L4.21231 21.5041H4.97149L5.13671 21.4931H5.14729L5.21691 21.486H5.23321L5.31516 21.4763C8.84005 13.9058 12.661 7.88172 16.467 4.25857C16.8856 3.31038 17.2985 2.58601 17.7497 2.03789C17.4853 1.59155 17.1962 1.21791 16.8737 0.946938L16.8645 0.939889L16.8107 0.913892L16.7574 0.887016L16.7058 0.8619L16.6446 0.836345L16.597 0.815636L16.497 0.773779L16.4543 0.757916L16.3798 0.727955L16.3397 0.714736L16.2362 0.679048H16.2278L16.1079 0.645121L16.0811 0.636749L15.9802 0.60855L15.9568 0.601941C15.8753 0.57991 15.7911 0.563167 15.7061 0.546864L15.6801 0.539814L15.5713 0.522189L15.5497 0.51558L15.421 0.498397H15.3986L15.299 0.487381L15.1412 0.501922" fill="url(#paint11_linear_2_220)"/>
<path id="Vector_22" d="M40.7962 5.64774C39.9282 8.42667 39.2263 10.7192 38.6143 12.6054C40.9949 9.32949 43.3399 5.20889 45.5725 0.453812C42.9671 1.27203 41.5783 3.14463 40.7962 5.64774Z" fill="url(#paint12_linear_2_220)"/>
<path id="Vector_23" d="M38.6896 20.2823C38.5684 20.344 38.4464 20.4026 38.327 20.4559C42.9569 18.3907 48.4804 10.1998 51.1241 0.0022583H50.5883C44.5131 10.855 42.5595 18.1202 38.6896 20.2823Z" fill="url(#paint13_linear_2_220)"/>
<path id="Vector_24" d="M35.6661 19.3705C36.6738 18.1408 37.4938 16.0505 38.6142 12.6054C37.3219 14.3806 36.0212 15.9064 34.7192 17.1507L34.7126 17.1617C34.9968 18.0126 35.3083 18.7638 35.6635 19.3701" fill="#079AE1"/>
<path id="Vector_25" d="M35.6661 19.3706C35.3233 19.7892 34.9598 20.1077 34.5562 20.3439C34.4681 20.3955 34.3782 20.4439 34.2874 20.488C34.714 20.718 35.1788 20.8722 35.7 20.9335L35.9309 20.9537H35.9446L36.0556 20.9608H36.4323L36.4751 20.9537L36.5584 20.9467H36.5989L36.6892 20.937H36.6967L36.7245 20.9304L36.821 20.9154H36.8492L36.9575 20.8973H36.9752L37.1915 20.8515C36.5936 20.633 36.0935 20.117 35.663 19.3825" fill="#1969BC"/>
<path id="Vector_26" d="M27.1302 20.9609C27.5629 20.9609 28.0008 20.9186 28.4401 20.834C28.8473 20.7604 29.2544 20.6471 29.6619 20.5048C30.0017 20.6705 30.3577 20.7939 30.7348 20.871C31.0274 20.9305 31.3314 20.9613 31.65 20.9613L27.1302 20.9609Z" fill="#1E5CB3"/>
<path id="Vector_27" d="M31.6499 20.9607C32.7201 20.9607 33.5679 20.8338 34.2874 20.4879C34.7139 20.7184 35.1788 20.8721 35.7 20.9338L35.9309 20.9536H35.9445L36.0556 20.9607H36.1886H31.6499Z" fill="#1E5CB3"/>
<path id="Vector_28" d="M36.1888 20.9608H36.4359L36.4787 20.9537L36.5628 20.9467H36.6034L36.6933 20.937H36.7007L36.7281 20.9299L36.8246 20.9154L36.8541 20.9088L36.9629 20.8911H36.9801L37.1964 20.8453C37.4057 20.9224 37.6238 20.9616 37.8587 20.9616L36.1896 20.9687L36.1888 20.9608Z" fill="#1D60B5"/>
<path id="Vector_29" d="M34.7158 17.1622V17.1552C34.2391 17.6112 33.7632 18.0289 33.2882 18.4065C33.0402 18.6034 32.7925 18.7903 32.5423 18.9665C32.752 19.2168 32.9648 19.4512 33.1891 19.6649C33.5292 19.9949 33.8927 20.2729 34.2897 20.4875C34.3801 20.443 34.4704 20.3945 34.5581 20.3434C34.9625 20.1072 35.3252 19.7882 35.6684 19.3701C35.3133 18.7638 35.0018 18.0121 34.718 17.1618" fill="#175FAB"/>
<path id="Vector_30" d="M48.892 0.0022583H46.195L45.7676 0.0229657L45.5689 0.448596C43.3358 5.20411 40.9918 9.32471 38.6112 12.6007C37.492 16.0454 36.6707 18.1361 35.6635 19.3654C36.094 20.1003 36.5949 20.6167 37.1906 20.8357L37.2373 20.8255H37.247L37.2801 20.8185L37.355 20.8L37.3995 20.7872L37.466 20.77L37.5074 20.7581L37.607 20.7282L37.6564 20.7114L37.7119 20.6912L37.7692 20.6731L37.8159 20.6555L37.9322 20.6145L37.9644 20.6026L38.0357 20.5748L38.0657 20.5638L38.316 20.4568H38.3248C38.4442 20.4043 38.5658 20.3448 38.6865 20.2832C42.5573 18.1206 44.5114 10.8558 50.5865 0.00357941H48.8898L48.892 0.0022583Z" fill="url(#paint14_linear_2_220)"/>
<path id="Vector_31" d="M15.2944 0.479314L15.3222 0.486364L15.3927 0.493854H15.4165L15.5451 0.510598L15.5667 0.517647L15.6751 0.535713L15.7024 0.542322L15.9522 0.597838L15.9751 0.604889L16.0756 0.633088L16.1034 0.641459L16.2228 0.675387L16.232 0.682436L16.3364 0.718126L16.3761 0.730904L16.451 0.761306L16.4933 0.776287L16.5929 0.817704L16.6414 0.838413L16.7013 0.864408L16.7541 0.889524L16.8066 0.916841C17.2379 1.12833 17.6345 1.41077 18.002 1.75312C18.1377 1.6108 18.2787 1.48303 18.4258 1.36803C17.6226 0.798317 16.7119 0.473587 15.6628 0.473587C15.5411 0.473587 15.4195 0.480636 15.2962 0.489889" fill="#7DCBEC"/>
<path id="Vector_32" d="M18.0003 1.74259C18.2255 1.95188 18.4409 2.18541 18.6445 2.43744C18.8419 2.30041 19.0375 2.16822 19.2336 2.04485C18.9767 1.78798 18.7058 1.55665 18.4233 1.3575C18.2766 1.47206 18.136 1.60072 18.0003 1.74259Z" fill="#5EC5ED"/>
<path id="Vector_33" d="M15.1779 0.507999L15.5447 0.492455C16.5945 0.492455 17.5044 0.817139 18.3073 1.38654C19.1547 0.71705 20.18 0.483563 21.6034 0.483563H14.7106L15.1779 0.507999Z" fill="url(#paint15_linear_2_220)"/>
<path id="Vector_34" d="M21.6034 0.483431C20.1799 0.483431 19.1569 0.716918 18.3073 1.3864C18.5875 1.58436 18.8589 1.81572 19.1169 2.07373C20.298 1.32417 21.4656 0.825906 22.6178 0.610158C23.0582 0.527863 23.4963 0.485603 23.9278 0.485603L21.6034 0.483431Z" fill="url(#paint16_linear_2_220)"/>
<path id="Vector_35" d="M38.6143 12.6072C39.2272 10.7196 39.9273 8.42802 40.7971 5.6482C41.5801 3.14376 42.9671 1.27116 45.5711 0.454271L45.7721 0.0286407C41.5263 0.282874 39.5418 2.44275 38.5438 5.64115C36.7972 11.225 35.7393 14.8446 34.7206 17.1512C36.0213 15.9074 37.322 14.3807 38.6143 12.6072Z" fill="url(#paint17_linear_2_220)"/>
</g>
<defs>
<linearGradient id="paint0_linear_2_220" x1="23.6944" y1="0.314852" x2="23.6944" y2="26.1111" gradientUnits="userSpaceOnUse">
<stop stop-color="#0994DC"/>
<stop offset="0.35" stop-color="#66CEF5"/>
<stop offset="0.846" stop-color="#127BCA"/>
<stop offset="1" stop-color="#127BCA"/>
</linearGradient>
<linearGradient id="paint1_linear_2_220" x1="24.6656" y1="-0.305603" x2="24.6656" y2="26.0804" gradientUnits="userSpaceOnUse">
<stop stop-color="#0E76BC"/>
<stop offset="0.36" stop-color="#36AEE8"/>
<stop offset="0.846" stop-color="#00ADEF"/>
<stop offset="1" stop-color="#00ADEF"/>
</linearGradient>
<linearGradient id="paint2_linear_2_220" x1="29.8869" y1="20.3339" x2="29.8869" y2="-0.660979" gradientUnits="userSpaceOnUse">
<stop stop-color="#1C63B7"/>
<stop offset="0.5" stop-color="#33BDF2"/>
<stop offset="1" stop-color="#33BDF2" stop-opacity="0.42"/>
</linearGradient>
<linearGradient id="paint3_linear_2_220" x1="28.4681" y1="-3.06213" x2="28.4681" y2="24.4035" gradientUnits="userSpaceOnUse">
<stop stop-color="#166AB8"/>
<stop offset="0.4" stop-color="#36AEE8"/>
<stop offset="0.846" stop-color="#0798DD"/>
<stop offset="1" stop-color="#0798DD"/>
</linearGradient>
<linearGradient id="paint4_linear_2_220" x1="26.4446" y1="-2.84776" x2="26.4446" y2="26.3584" gradientUnits="userSpaceOnUse">
<stop stop-color="#124379"/>
<stop offset="0.39" stop-color="#1487CB"/>
<stop offset="0.78" stop-color="#165197"/>
<stop offset="1" stop-color="#165197"/>
</linearGradient>
<linearGradient id="paint5_linear_2_220" x1="14.4112" y1="5.77502" x2="18.5336" y2="5.77502" gradientUnits="userSpaceOnUse">
<stop stop-color="#33BDF2" stop-opacity="0.698"/>
<stop offset="1" stop-color="#1DACD8"/>
</linearGradient>
<linearGradient id="paint6_linear_2_220" x1="45.629" y1="19.7882" x2="45.629" y2="-0.663637" gradientUnits="userSpaceOnUse">
<stop stop-color="#136AB4"/>
<stop offset="0.6" stop-color="#59CAF5" stop-opacity="0.549"/>
<stop offset="1" stop-color="#59CAF5" stop-opacity="0.235"/>
</linearGradient>
<linearGradient id="paint7_linear_2_220" x1="-0.219082" y1="10.6662" x2="15.073" y2="10.6662" gradientUnits="userSpaceOnUse">
<stop stop-color="#05A1E6" stop-opacity="0.247"/>
<stop offset="1" stop-color="#05A1E6"/>
</linearGradient>
<linearGradient id="paint8_linear_2_220" x1="8.5529" y1="20.3158" x2="8.5529" y2="-0.62526" gradientUnits="userSpaceOnUse">
<stop stop-color="#318ED5"/>
<stop offset="1" stop-color="#38A7E4"/>
</linearGradient>
<linearGradient id="paint9_linear_2_220" x1="9.68179" y1="20.4273" x2="9.68179" y2="0.0191501" gradientUnits="userSpaceOnUse">
<stop stop-color="#05A1E6"/>
<stop offset="1" stop-color="#05A1E6" stop-opacity="0.549"/>
</linearGradient>
<linearGradient id="paint10_linear_2_220" x1="10.9614" y1="21.4944" x2="10.9614" y2="4.24926" gradientUnits="userSpaceOnUse">
<stop stop-color="#1959A6"/>
<stop offset="0.5" stop-color="#05A1E6"/>
<stop offset="0.918" stop-color="#7EC5EA"/>
<stop offset="1" stop-color="#7EC5EA"/>
</linearGradient>
<linearGradient id="paint11_linear_2_220" x1="11.5135" y1="20.3484" x2="8.22485" y2="1.69762" gradientUnits="userSpaceOnUse">
<stop stop-color="#165096"/>
<stop offset="1" stop-color="#0D82CA"/>
</linearGradient>
<linearGradient id="paint12_linear_2_220" x1="41.9868" y1="9.77288" x2="41.9868" y2="0.0260325" gradientUnits="userSpaceOnUse">
<stop stop-color="#05A1E6"/>
<stop offset="0.874" stop-color="#0495D6"/>
<stop offset="1" stop-color="#0495D6"/>
</linearGradient>
<linearGradient id="paint13_linear_2_220" x1="46.7574" y1="-0.754514" x2="42.7942" y2="21.7211" gradientUnits="userSpaceOnUse">
<stop stop-color="#38A7E4" stop-opacity="0.329"/>
<stop offset="0.962" stop-color="#0E88D3"/>
<stop offset="1" stop-color="#0E88D3"/>
</linearGradient>
<linearGradient id="paint14_linear_2_220" x1="42.9971" y1="-0.0345072" x2="42.9971" y2="21.2291" gradientUnits="userSpaceOnUse">
<stop stop-color="#168CD4"/>
<stop offset="0.5" stop-color="#1C87CC"/>
<stop offset="1" stop-color="#154B8D"/>
</linearGradient>
<linearGradient id="paint15_linear_2_220" x1="14.8775" y1="-1.8793" x2="39.6017" y2="8.37601" gradientUnits="userSpaceOnUse">
<stop stop-color="#97D6EE"/>
<stop offset="0.703" stop-color="#55C1EA"/>
<stop offset="1" stop-color="#55C1EA"/>
</linearGradient>
<linearGradient id="paint16_linear_2_220" x1="19.1886" y1="3.72567" x2="38.7162" y2="-5.12646" gradientUnits="userSpaceOnUse">
<stop stop-color="#7ACCEC"/>
<stop offset="1" stop-color="#3FB7ED"/>
</linearGradient>
<linearGradient id="paint17_linear_2_220" x1="40.0959" y1="1.12161" x2="40.0959" y2="21.9196" gradientUnits="userSpaceOnUse">
<stop stop-color="#1DA7E7"/>
<stop offset="1" stop-color="#37ABE7" stop-opacity="0"/>
</linearGradient>
</defs>
</svg>
