<svg width="51" height="54" viewBox="0 0 51 54" fill="none" xmlns="http://www.w3.org/2000/svg">
<g id="icon-cpp">
<path id="Vector" d="M50.1417 15.8788C50.1602 15.0381 49.9481 14.2085 49.5285 13.4798C49.0881 12.7644 48.4651 12.1793 47.7235 11.7847C41.046 8.09761 34.3653 4.4124 27.6814 0.729118C26.8755 0.244312 25.9512 -0.00797651 25.0108 0.000192256C24.0703 0.00836102 23.1505 0.276669 22.3532 0.7754C19.6958 2.27764 6.3955 9.57864 2.43067 11.779C1.67618 12.158 1.04633 12.7456 0.615954 13.472C0.185577 14.1984 -0.0272378 15.0331 0.00279088 15.8769V38.1289C-0.0166909 38.9506 0.182993 39.7626 0.581317 40.4816C1.0242 41.2175 1.66054 41.8178 2.42103 42.2171C6.38586 44.4175 19.6881 51.7185 22.3455 53.2207C23.1424 53.72 24.0621 53.989 25.0025 53.9978C25.9429 54.0067 26.8675 53.7551 27.6737 53.2708C34.346 49.5798 41.0222 45.8946 47.7023 42.2152C48.4629 41.8154 49.0997 41.2152 49.5439 40.4796C49.9422 39.7607 50.1419 38.9486 50.1224 38.127V15.8788" fill="#659AD2"/>
<path id="Vector_2" d="M49.272 40.8306C49.3728 40.7189 49.4675 40.6017 49.5555 40.4796C49.9538 39.7607 50.1535 38.9486 50.134 38.127V15.8788C50.1525 15.0381 49.9404 14.2085 49.5207 13.4798C49.4513 13.3661 49.3491 13.2774 49.27 13.1713L25.0722 27.0019L49.272 40.8306Z" fill="#00599C"/>
<path id="Vector_3" d="M49.272 40.8306L25.0722 27.0019L0.872498 40.8306C1.28171 41.4047 1.81492 41.8792 2.43259 42.2191C6.39742 44.4194 19.6997 51.7204 22.357 53.2226C23.154 53.7219 24.0736 53.9909 25.0141 53.9998C25.9545 54.0086 26.879 53.757 27.6852 53.2728C34.3576 49.5818 41.0338 45.8965 47.7138 42.2171C48.3308 41.8779 48.8633 41.404 49.272 40.8306Z" fill="#004482"/>
<g id="Group">
<path id="Vector_4" d="M32.0146 30.8973C31.1555 32.425 29.8156 33.6258 28.2033 34.313C26.5909 35.0001 24.7967 35.135 23.0998 34.6966C21.4028 34.2582 19.8984 33.2711 18.8207 31.889C17.743 30.5069 17.1523 28.8073 17.1408 27.0547C17.1292 25.3021 17.6973 23.5948 18.7567 22.1986C19.8161 20.8024 21.3073 19.7955 22.9983 19.3347C24.6893 18.8739 26.4851 18.9851 28.1064 19.6509C29.7277 20.3166 31.0834 21.4997 31.9625 23.0159L38.9338 19.0182C37.1643 15.9816 34.4454 13.6109 31.1961 12.2714C27.9467 10.932 24.347 10.698 20.9516 11.6056C17.5562 12.5132 14.5534 14.512 12.4057 17.2941C10.2581 20.0763 9.08469 23.4873 9.06639 27.0019C9.06291 29.7888 9.79461 32.5274 11.1877 34.9412C12.5983 37.3793 14.626 39.4029 17.0668 40.8087C19.5077 42.2145 22.2756 42.9529 25.0923 42.9495C27.9091 42.9462 30.6753 42.2013 33.1128 40.7898C35.5503 39.3782 37.5732 37.3498 38.9781 34.9084L32.0146 30.8973Z" fill="white"/>
<path id="Vector_5" d="M40.6462 26.111H38.8605V24.3349H37.0767V26.111H35.291V27.8909H37.0767V29.6651H38.8605V27.8909H40.6462V26.111Z" fill="white"/>
<path id="Vector_6" d="M47.3436 26.111H45.5579V24.3349H43.7721V26.111H41.9864V27.8909H43.7721V29.6651H45.5579V27.8909H47.3436V26.111Z" fill="white"/>
</g>
</g>
</svg>
