<svg width="54" height="54" viewBox="0 0 54 54" fill="none" xmlns="http://www.w3.org/2000/svg">
<g id="icon-ps">
<path id="Vector" d="M0 19.5428C0 12.7022 0 9.28189 1.33127 6.66912C2.5023 4.37086 4.37086 2.5023 6.66912 1.33127C9.28189 0 12.7022 0 19.5428 0H34.4572C41.2978 0 44.7182 0 47.3308 1.33127C49.6291 2.5023 51.4977 4.37086 52.6687 6.66912C54 9.28189 54 12.7022 54 19.5428V34.4572C54 41.2978 54 44.7182 52.6687 47.3308C51.4977 49.6291 49.6291 51.4977 47.3308 52.6687C44.7182 54 41.2978 54 34.4572 54H19.5428C12.7022 54 9.28189 54 6.66912 52.6687C4.37086 51.4977 2.5023 49.6291 1.33127 47.3308C0 44.7182 0 41.2978 0 34.4572V19.5428Z" fill="#001E36"/>
<g id="Group">
<path id="Vector_2" d="M11.5714 39.567V15.8208C11.5714 15.6594 11.6389 15.567 11.7964 15.567C14.1216 15.567 16.4457 15.4286 18.7714 15.4286C22.5454 15.4286 26.6317 16.719 28.064 20.667C28.4015 21.6363 28.5814 22.6285 28.5814 23.667C28.5814 25.6517 28.1315 27.2901 27.2314 28.5824C24.7174 32.1923 20.3599 32.1362 16.454 32.1362V39.544C16.4845 39.7633 16.2976 39.867 16.1165 39.867H11.8414C11.6614 39.867 11.5714 39.7747 11.5714 39.567ZM16.4764 20.0209V27.7747C18.0252 27.8881 19.6458 27.9005 21.1339 27.4056C22.7768 26.9315 23.6765 25.5096 23.6765 23.8055C23.722 22.3535 22.9309 20.9603 21.584 20.4363C20.1139 19.8249 18.0634 19.7883 16.4764 20.0209Z" fill="#31A8FF"/>
<path id="Vector_3" d="M42.6151 26.2428C41.9343 25.8839 41.2091 25.6215 40.4595 25.4625C39.4964 25.2359 35.6975 24.4421 35.6959 26.4286C35.7297 27.5375 37.4901 28.0808 38.2679 28.3976C40.9985 29.3351 44.0885 31.0108 44.0277 34.3795C44.1112 38.573 40.0481 40.2495 36.5653 40.2499C34.7523 40.2686 32.8634 39.9878 31.2041 39.2094C31.0456 39.1255 30.9437 38.9463 30.9505 38.7635V34.7509C30.9325 34.5901 31.1053 34.4495 31.2403 34.5652C32.8661 35.5484 34.7932 36.0259 36.6741 36.0514C37.5043 36.0514 39.1498 35.9709 39.1375 34.7509C39.1375 33.5803 37.169 33.042 36.3842 32.7446C35.2468 32.3387 34.1683 31.7761 33.1784 31.0728C31.7948 30.0859 30.9269 28.5037 30.9505 26.763C30.9424 22.8144 34.6825 21.0421 38.0507 21.0413C39.6252 21.0282 41.3162 21.1449 42.7819 21.7844C42.9927 21.8463 43.0363 22.0684 43.0355 22.2673V26.0199C43.0488 26.2529 42.7902 26.3321 42.6151 26.2428Z" fill="#31A8FF"/>
</g>
</g>
</svg>
