<svg width="54" height="54" viewBox="0 0 54 54" fill="none" xmlns="http://www.w3.org/2000/svg">
<g id="icon-gsap">
<path id="Vector" d="M0 10C0 4.47715 4.47715 0 10 0H44C49.5228 0 54 4.47715 54 10V44C54 49.5228 49.5228 54 44 54H10C4.47715 54 0 49.5228 0 44V10Z" fill="white"/>
<g id="Vector_2">
<path d="M29.9025 50.9564C29.2868 50.8489 28.6489 50.5575 28.2871 50.2351C28.0405 49.9819 27.9032 49.6374 27.8943 49.2841C27.8943 48.9235 28.0789 48.4171 28.3712 47.9121C28.5484 47.628 28.6872 47.3218 28.7862 46.9995C28.8482 46.7772 28.9781 46.4165 29.0785 46.1869L29.2557 45.7658L29.3015 42.9527C29.3251 41.3967 29.3709 39.9555 29.4093 39.7318C29.5097 39.087 29.6781 38.4584 29.901 37.8461L30.0708 37.4398L29.8242 37.294C29.6013 37.1557 29.4167 36.9643 28.6858 36.0972C27.7865 35.0388 26.6023 34.4559 24.9248 34.2571C24.3785 34.2041 23.8248 34.1644 23.271 34.1423C20.8095 34.0275 19.4023 33.5137 18.1339 32.2713C17.1874 31.3439 16.6957 30.2619 16.4963 28.6676C16.2276 26.5125 15.9278 25.4085 15.3741 24.512C15.2353 24.2897 15.0817 24.0821 14.9045 23.8907L14.6816 23.6685L14.1899 23.9835C13.9211 24.1601 13.5431 24.3824 13.3585 24.4825C12.7428 24.8196 12.158 25.195 11.5969 25.6013C10.2207 26.5979 8.72048 27.8477 7.89801 28.6676C7.52885 29.0357 7.33689 29.1961 7.25125 29.1814C6.69014 29.0975 7.11983 26.6744 8.03533 24.8491C9.20481 22.4952 11.1731 20.3254 13.4501 18.8606C15.3195 17.6565 18.3421 16.0004 19.7404 15.4175C22.2241 14.3826 25.4387 13.2623 27.6388 12.6647C28.101 12.5336 28.3845 12.4188 28.5765 12.2893C29.0077 11.9904 29.43 11.8447 29.9143 11.8374C30.3219 11.83 30.3602 11.8226 30.753 11.5606C31.2152 11.2618 31.3525 11.2456 31.8147 11.4075L32.1145 11.515L32.4836 11.2618L32.8528 11.0159L33.3829 11.0233C33.7904 11.0307 33.975 11.0159 34.1522 10.9394C34.3752 10.8393 34.3825 10.8246 34.4446 10.4565C34.5834 9.65868 34.5981 9.25974 34.514 8.7769C34.4062 8.14096 34.3914 5.67228 34.4992 5.18797C34.6144 4.66685 34.6912 4.55939 35.0839 4.36802C35.6687 4.08391 36.1072 4 37.1143 4C38.3443 4 38.9674 4.16929 39.4296 4.61386C39.8445 5.01279 39.9139 5.94756 39.6983 8.14096C39.5669 9.40548 39.5522 9.75878 39.5906 10.5861C39.6053 11.1146 39.6437 11.6136 39.66 11.6828C39.691 11.8138 39.722 11.8212 40.1679 11.8285C40.6065 11.8359 40.6833 11.8594 41.0982 12.0744C41.4983 12.2819 41.7981 12.5351 41.8601 12.7191C41.8675 12.7574 41.9369 12.7574 42.0595 12.7191C42.2972 12.6499 42.5054 12.7265 42.6752 12.9341C42.7756 13.0651 42.8362 13.0871 43.068 13.0871C43.384 13.0871 43.4992 13.1637 43.7605 13.5479C43.8831 13.7246 44.0529 13.8541 44.2448 13.9395C44.676 14.1544 45.2608 14.7521 45.4837 15.2276C45.8292 15.9327 45.8986 16.7526 45.6831 17.4887C45.6063 17.7654 45.6063 17.7728 45.7672 18.0407C46.1054 18.6163 46.2294 19.3214 46.0906 19.9191L46.0138 20.2724L46.2442 20.502C47.39 21.6443 47.2202 23.508 45.8219 25.1715C45.6757 25.3481 45.4985 25.6234 45.4291 25.7927C45.1603 26.5052 44.8517 27.0042 44.453 27.4178L44.0455 27.8315H43.6306C43.2156 27.8315 42.6309 27.6931 42.2765 27.5091C42.1303 27.4326 42.1229 27.4326 42.154 27.5238C42.247 27.8609 42.4773 29.2329 42.5541 29.9925C42.6767 31.1584 42.6383 32.8528 42.4773 33.5814C42.3622 34.1188 42.1613 34.6399 41.8926 35.1227C41.739 35.3686 41.7316 35.4215 41.7612 35.7204C41.807 36.1414 41.708 36.848 41.5382 37.3146C41.33 37.8593 41.2532 38.1125 41.2075 38.3878C41.1691 38.6248 41.1691 38.6248 41.3389 38.6248C41.5618 38.6248 41.6844 38.7558 41.6844 39.0164C41.6844 39.1312 41.584 39.7524 41.4614 40.3883C41.1233 42.1754 41.0997 42.3742 41.0997 44.1068C41.0923 45.8939 41.0923 45.8777 41.4998 46.1456L42.4153 46.736C43.1994 47.2571 44.0455 47.6869 44.93 48.024C46.2146 48.5304 46.3918 48.66 46.3918 49.0898C46.3918 49.2812 46.3534 49.3504 46.1925 49.5035C45.7008 49.9789 44.7306 50.0864 42.7771 49.8788C41.7612 49.7861 40.7394 49.7331 39.7235 49.7331C37.0316 49.6948 36.6388 49.6021 36.2859 48.9352C36.0866 48.5525 36.1249 48.0535 36.4011 47.2335C36.5236 46.8729 36.6314 46.5048 36.7244 46.1295C36.909 45.2403 36.7865 44.1819 36.3553 42.9866L35.9861 41.9664C35.6244 40.9315 35.425 39.037 35.6406 38.6086C35.679 38.5247 35.7484 38.5085 35.933 38.5159L36.1633 38.5394L36.3553 38.1405C36.5015 37.8254 36.6624 37.6194 37.101 37.1822L37.6621 36.6228L37.6311 36.2621C37.6075 35.9176 37.1541 34.2453 37.0921 34.2527C37.0685 34.2527 36.9459 34.422 36.8071 34.6355C36.469 35.1418 35.7233 35.9235 35.2995 36.2076C35.1149 36.3298 34.9614 36.4756 34.9614 36.5227C34.954 36.7302 34.7768 37.1365 34.5612 37.4192C34.353 37.6959 34.3382 37.7415 34.3693 37.9859C34.4224 38.3466 34.3072 39.5036 34.1699 40.1101C34.0474 40.5547 33.8775 40.9919 33.662 41.4129C33.1319 42.5096 32.7317 43.49 32.6313 43.9434C32.5545 44.3806 32.5161 44.8252 32.4925 45.2624C32.4689 45.7835 32.4157 46.2899 32.3773 46.3974C32.3241 46.5431 32.3241 46.6579 32.3699 46.8802C32.4083 47.0407 32.4319 47.4013 32.4231 47.6854C32.4157 48.077 32.4467 48.3302 32.5619 48.7895C32.7612 49.5712 32.7996 50.0629 32.7081 50.3543C32.646 50.5383 32.5855 50.6075 32.3773 50.7076C31.9151 50.9446 30.6083 51.0756 29.901 50.9535L29.9025 50.9564ZM31.7704 50.3278C32.0392 50.2513 32.271 50.0216 32.271 49.8141C32.271 49.7213 32.1942 49.4534 32.1012 49.2164C31.9166 48.7645 31.6006 47.5677 31.6006 47.3689C31.6006 47.2688 31.608 47.2615 31.7616 47.3454L31.9314 47.4381V47.2232C31.9077 47.0245 31.862 46.8316 31.7999 46.6403C31.6538 46.2031 31.639 46.1957 30.7073 46.1412L30.0767 46.1103L29.8464 46.3326C29.7238 46.4636 29.6087 46.6005 29.5156 46.7624C29.4152 46.9612 29.3768 47.2615 29.4388 47.3292C29.4536 47.3528 29.6087 47.3292 29.777 47.2909C29.8774 47.26 29.9763 47.2453 30.0841 47.2379C30.0841 47.2453 29.9143 47.3837 29.7002 47.5294C28.7773 48.2198 28.4539 48.6408 28.4539 49.1781C28.4539 49.7375 28.984 50.1747 29.8154 50.3057C30.3839 50.3897 31.4913 50.4132 31.7689 50.3293L31.7704 50.3278ZM44.2832 49.4151C44.5136 49.1384 44.4826 48.8557 44.1902 48.5334C44.0204 48.3641 43.8284 48.2183 43.6129 48.1035C43.3973 47.9887 43.1817 47.8577 42.9661 47.7208C42.7963 47.5986 42.2588 47.2836 41.7656 47.0156C41.4112 46.8243 41.0657 46.6241 40.7275 46.4106L40.5887 46.3032V44.1951C40.5887 42.118 40.5814 42.0871 40.4736 42.118C39.9346 42.2638 39.0427 42.333 37.9131 42.3094L36.6905 42.2947L36.8677 42.7245C37.1984 43.5371 37.3683 44.6265 37.3683 45.8763C37.3683 46.3444 37.3372 46.5122 37.2221 46.8419C37.1601 47.0024 37.1069 47.1643 37.0523 47.3248C37.0286 47.394 37.1143 47.447 37.4288 47.5397C37.6591 47.6089 37.9973 47.6781 38.1907 47.7002L38.5451 47.7384L38.5067 48.0917C38.4683 48.4907 38.5141 48.9117 38.6145 49.0427C38.6765 49.1192 38.9069 49.1502 39.976 49.1958C40.7837 49.2341 41.6608 49.318 42.3518 49.4181C42.9513 49.5108 43.5981 49.5874 43.79 49.5874C44.1134 49.5947 44.1444 49.58 44.2818 49.4181L44.2832 49.4151ZM31.9712 45.8277C32.0022 45.8041 32.048 45.3905 32.0643 44.9003C32.1263 43.5283 32.1794 43.3281 32.872 41.7795C33.4405 40.5149 33.7417 39.3343 33.7181 38.4982L33.7033 37.9992L33.4877 38.2067C33.0418 38.6513 33.3489 37.9535 33.8805 37.3323C34.2807 36.8568 34.4195 36.5963 34.48 36.1753C34.511 36.006 34.573 35.9221 34.8344 35.7233C35.8267 34.9726 36.5414 34.0216 37.0109 32.8557C37.1187 32.579 37.3948 31.6368 37.6267 30.7624C38.0578 29.1446 38.2882 28.4468 38.4964 28.148C38.5732 28.0332 38.6042 28.0096 38.5894 28.0862C38.4669 28.5469 38.4285 28.7383 38.3281 29.336C38.266 29.7113 38.1509 30.4474 38.0741 30.9611C37.9279 32.0122 37.7743 32.6864 37.5661 33.2075L37.4273 33.5608L37.7965 34.5118C38.1804 35.4848 38.3576 36.1914 38.3886 36.873L38.4122 37.2558L38.1125 37.3176C37.7123 37.3868 37.3668 37.6091 37.1276 37.9314C36.8662 38.3068 36.72 38.6145 36.7894 38.6822C36.8204 38.7131 37.197 38.7823 37.6281 38.8353C38.297 38.9118 38.551 38.9118 39.4355 38.8589C39.8194 38.8441 40.1974 38.8059 40.574 38.7514C40.6582 38.7205 40.7438 38.5527 40.8811 38.1155C41.1971 37.1115 41.2577 36.7582 41.2193 36.0531L41.1883 35.4318L41.3492 35.2243C41.7257 34.7488 42.0181 33.8906 42.1407 32.8851C42.2869 31.6589 42.0181 29.0901 41.5175 26.882C41.2798 25.8309 41.1794 25.2024 41.1794 24.7431V24.3368L40.8029 24.3751C39.4488 24.5208 37.8112 24.4825 36.8116 24.275C36.2652 24.1675 34.889 23.7612 34.5893 23.6302L34.3515 23.5227L34.3205 23.7906C34.2969 23.9364 34.2747 24.0821 34.2437 24.2352C34.198 24.3957 34.2127 24.4339 34.4977 24.7107C34.8521 25.0714 34.9599 25.2554 34.9599 25.4997C34.9599 25.6528 34.8757 25.7765 34.4446 26.221C34.1286 26.5508 33.7299 26.9041 33.4213 27.1028L32.9207 27.4399L32.7051 28.1833C31.9358 30.9052 31.7896 33.3812 32.2976 35.1522L32.4201 35.5967L32.1735 35.9029C31.2506 37.06 30.7043 37.9417 30.6201 38.4334C30.6054 38.5335 30.5271 38.8544 30.4503 39.1547C30.251 39.9143 30.0959 41.0258 30.028 42.2299C29.9822 43.2339 29.9128 44.2467 29.8287 45.2506L29.7903 45.5495L30.1742 45.6643C30.3898 45.7335 30.7132 45.81 30.8977 45.8409C31.2433 45.8939 31.8826 45.8792 31.9816 45.8262L31.9712 45.8277ZM39.4385 41.6102C40.038 41.5719 40.5843 41.4792 40.6921 41.3879C40.7379 41.357 40.7925 41.1965 40.8073 41.0346L40.8457 40.7431L40.3687 40.8506C39.9922 40.9271 39.6157 40.9728 39.2376 41.0037C38.3295 41.0419 37.4155 41.0184 36.5148 40.9271C36.215 40.8815 36.215 40.8815 36.3066 41.2716C36.3834 41.5631 36.3996 41.5778 37.1837 41.6322C37.7064 41.6779 38.4373 41.6705 39.437 41.6087L39.4385 41.6102ZM38.9379 40.2765C39.722 40.2073 40.6995 40.0395 40.8915 39.9394C40.9535 39.9084 41.0066 39.7936 41.0303 39.6626L41.0997 39.2563L41.138 39.0649L40.9461 39.1032C40.0926 39.2799 39.4459 39.3329 38.1538 39.3329C36.8928 39.3329 36.7466 39.3255 36.4158 39.2107C36.2933 39.1577 36.1545 39.1268 36.0157 39.1179C35.9625 39.1489 35.9537 39.5861 36.0009 39.8923C36.0319 40.0763 36.0629 40.1072 36.2475 40.1602C36.8322 40.3206 37.8171 40.3589 38.9394 40.2676L38.9379 40.2765ZM24.665 33.3606C26.6333 32.7939 29.21 31.129 31.3171 29.0445C32.0022 28.3615 32.0864 28.2702 32.178 27.964L32.3005 27.5724C32.3153 27.5415 32.1927 27.4885 32.0318 27.4502C31.6095 27.3501 31.2861 27.1058 31.2861 26.8835C31.2861 26.7525 31.2093 26.6229 30.9863 26.3844C30.6246 25.9782 30.533 25.8015 30.4946 25.4114L30.4636 25.0964L30.0324 24.7902C29.7858 24.6135 28.925 24.1381 28.0095 23.6788C27.3169 23.3417 26.6333 22.9736 25.9644 22.5747C25.1951 22.0609 24.6797 21.4471 24.3873 20.7199C24.3342 20.5741 24.2648 20.452 24.2412 20.452C24.1791 20.452 22.4486 22.1154 21.7102 22.8971C19.8881 24.8137 18.6345 26.4772 17.8415 28.0185C17.6422 28.4012 17.4266 28.8546 17.3646 29.0224L17.2494 29.3286L17.3882 29.8424C17.4724 30.1191 17.6496 30.571 17.7884 30.839C18.2727 31.7899 18.85 32.364 19.8039 32.8322C20.8272 33.3386 21.7339 33.5152 23.2489 33.4916C24.064 33.4843 24.3032 33.4607 24.6635 33.3533L24.665 33.3606ZM9.1295 26.6362C10.4215 25.4938 12.2053 24.244 14.3907 22.9486C15.8215 22.0978 21.3514 19.3376 23.8971 18.21C24.3593 18.0024 24.7742 17.8111 24.82 17.789C24.8658 17.7581 24.9972 17.4283 25.1197 17.0603C25.6587 15.3586 25.9275 15.0215 26.9035 14.7992C27.0261 14.7683 27.0571 14.73 27.0571 14.6078C27.0571 14.3855 27.2106 13.8718 27.342 13.6421C27.4425 13.4655 27.4425 13.4581 27.3568 13.4817C27.3037 13.4964 26.9803 13.5891 26.6421 13.6892C21.9509 15.0391 17.8519 16.8321 14.3139 19.0712C10.5382 21.4633 8.36166 24.3309 7.73115 27.7653L7.68537 28.0185L8.14755 27.5665C8.39415 27.3133 8.84009 26.8997 9.13245 26.6465L9.1295 26.6362ZM43.9303 27.2883C44.3069 27.0969 44.8916 26.2152 45.1072 25.5174C45.1692 25.2716 45.2918 25.0419 45.469 24.8505C46.0375 24.222 46.507 23.0796 46.5144 22.298C46.5144 21.0791 45.8219 20.6109 44.8148 21.1321C44.6834 21.1939 44.5771 21.2395 44.5608 21.2248C44.5077 21.1718 44.7912 20.8951 45.1382 20.6801C45.5915 20.3813 45.6772 20.2047 45.6772 19.5687C45.6772 19.0314 45.5457 18.603 45.2386 18.1275C45.0998 17.92 45.0466 17.7831 45.0688 17.6977L45.2076 17.1839C45.3996 16.5009 45.3302 15.7192 45.0304 15.2217C44.5845 14.4709 44.0381 14.1029 43.2762 14.0411L42.8302 14.0101L43.0916 14.3016C43.8683 15.1378 44.2448 16.1873 44.0913 17.0853C44.0145 17.5461 43.9451 17.6373 43.4992 17.814L43.2378 17.9215L43.2688 18.2748C43.322 18.8503 43.223 19.2714 42.8539 20.0457C42.6693 20.4372 42.5305 20.7891 42.5467 20.8273C42.5925 20.9584 43.1005 21.2027 43.5006 21.3028L43.8934 21.3956L43.6468 21.4795C43.3234 21.5796 43.254 21.7253 43.254 22.2538C43.254 22.7366 43.3234 22.9368 43.6763 23.4653C43.8373 23.695 43.9451 23.9334 43.9613 24.0703C43.9923 24.2853 43.985 24.3 43.8078 24.3618C43.6084 24.4148 43.4002 24.4545 43.192 24.4619C42.4685 24.5075 42.4153 24.5311 42.0919 24.8373C41.7996 25.114 41.7922 25.1288 41.7922 25.435C41.7922 25.856 41.9531 26.7083 42.0536 26.8231C42.185 26.9615 42.9144 27.3222 43.1994 27.3752C43.446 27.437 43.7074 27.4061 43.9303 27.2912V27.2883ZM33.278 26.7142C33.7476 26.3462 34.1168 25.9782 34.3235 25.6631C34.4549 25.4718 34.4623 25.4335 34.4003 25.2716C34.2925 25.0257 33.5852 24.3898 33.1924 24.1984C32.931 24.0836 32.6534 23.9997 32.3699 23.9614L31.8856 23.8996L31.5858 23.5242C30.9627 22.7572 30.6172 22.1596 30.124 21.0011C29.6928 20.0192 29.3163 19.4451 28.7168 18.8768C28.4702 18.6472 28.2945 18.4558 28.3092 18.4558C28.3402 18.4558 28.6326 18.6016 28.9708 18.7782C29.5319 19.077 29.6013 19.1006 29.8552 19.0623C30.7707 18.9549 31.5785 17.9053 31.8708 16.4332C31.955 16.0195 32.1248 15.597 32.302 15.3438C32.3094 15.3365 32.6638 15.5661 33.0787 15.865C34.133 16.6084 34.3634 16.7232 34.9629 16.7467C35.3556 16.7615 35.5786 16.732 36.2859 16.5627C37.7935 16.1947 39.4237 16.049 40.416 16.18C40.9771 16.2565 41.7848 16.5024 42.3843 16.785C42.9764 17.0618 43.0916 17.0765 43.2836 16.9072C43.4445 16.7688 43.4445 16.7467 43.4445 16.233C43.4371 15.4734 43.1595 14.6534 42.7372 14.1632C42.5216 13.91 41.9147 13.4964 41.3138 13.1814C41.0982 13.0665 40.8826 12.9517 40.6759 12.8369C40.3909 12.6676 40.069 12.6912 39.1919 12.9208C38.176 13.1814 37.9072 13.1814 36.7466 12.8825C35.7617 12.6367 35.7012 12.6293 34.731 12.7824C34.2157 12.859 32.9236 12.8133 32.4925 12.6985C32.2769 12.6367 32.0613 12.5763 31.8546 12.4998C31.478 12.3541 30.8239 12.3305 30.2318 12.438C29.0549 12.6455 28.163 13.2815 27.8397 14.147C27.6699 14.5843 27.6935 14.7918 27.9165 14.9287C28.2708 15.151 28.7389 15.7575 28.7389 15.9945C28.7389 16.0092 28.6238 15.9106 28.4923 15.7722C28.1616 15.4278 27.8618 15.2732 27.5074 15.2732C27.0379 15.2879 26.6156 15.5647 26.4236 15.9857C26.3232 16.2536 26.2316 16.5303 26.1622 16.8145C25.9466 17.5961 25.7547 18.0113 25.3471 18.5633C24.9854 19.0623 24.9322 19.2846 25.0622 19.844C25.3855 21.2542 25.9466 21.8225 28.2915 23.1488C29.5215 23.8466 30.152 24.2382 30.6142 24.5826C30.9686 24.8432 30.976 24.8594 30.945 25.0581C30.8756 25.5189 31.168 26.0164 31.7453 26.4227C31.8915 26.5228 31.983 26.6303 31.983 26.7068C31.983 26.8452 32.3758 27.0366 32.6593 27.0366C32.8203 27.0366 32.9443 26.9674 33.2751 26.7142H33.278ZM42.7609 24.1292C43.6527 24.1601 43.6985 24.0909 43.223 23.5389C42.7225 22.9633 42.5851 22.4967 42.7697 21.9829L42.8465 21.7842L42.5305 21.6311C42.4227 21.5781 42.3149 21.5236 42.2071 21.4854C42.154 21.6929 42.0993 21.8917 42.0536 22.0992C41.9384 22.5673 41.7996 23.7789 41.7922 24.2926C41.7922 24.3383 41.869 24.3235 42.0004 24.2396C42.185 24.1322 42.278 24.1174 42.7623 24.1322L42.7609 24.1292ZM39.7692 24.0836C40.3082 24.0527 40.8619 24.0144 41.0081 23.9908L41.2768 23.9526L41.3079 23.0708C41.3536 21.8136 41.5382 21.0702 42.0846 19.8808C42.4685 19.0373 42.6383 18.3013 42.5541 17.7492C42.5231 17.5122 42.5083 17.496 42.185 17.3577C41.5928 17.1206 40.9771 16.9587 40.3466 16.8586C39.7397 16.7747 37.9545 16.8203 37.2856 16.9514C37.008 16.997 36.5015 17.1045 36.1633 17.1884C35.3246 17.3797 34.8787 17.3577 34.2408 17.0809C33.6103 16.8041 33.2101 16.5524 32.8336 16.1991C32.5338 15.9224 32.5028 15.9077 32.426 16.0004C32.364 16.0696 32.333 16.2771 32.3109 16.7217C32.2872 17.4048 32.1794 17.7639 31.8797 18.2468C31.8103 18.3469 31.7571 18.4544 31.7099 18.5618C31.7099 18.5854 31.9402 18.8533 32.2252 19.1448C33.2101 20.1649 33.6944 20.4255 34.4711 20.371C34.7251 20.3474 34.9023 20.3563 34.9023 20.3857C34.9023 20.4475 34.4017 20.8376 34.195 20.9451C34.0946 20.9981 34.0725 21.0526 34.0872 21.1674L34.2098 21.9726C34.2792 22.4334 34.3323 22.6468 34.4017 22.7087C34.5863 22.8618 35.5402 23.3534 36.1397 23.5978C36.9238 23.9128 37.355 24.0276 37.9545 24.0806C38.6928 24.1425 38.7075 24.1425 39.7692 24.0806V24.0836ZM33.4095 23.2401C33.4242 23.2165 33.3711 22.772 33.2707 22.2582C33.1481 21.5604 33.0787 21.3072 33.0019 21.2381C32.9488 21.1924 32.6638 20.9922 32.3788 20.7861C32.0022 20.5182 31.6479 20.2194 31.3171 19.9044L30.787 19.3832L30.502 19.529L30.2023 19.6894C30.2259 19.8116 30.2717 19.9264 30.3248 20.0339C30.409 20.2179 30.5788 20.6698 30.7013 21.0379C31.0247 21.9962 31.2787 22.4569 31.9166 23.2916L32.1543 23.6066L32.6077 23.6758C32.8616 23.7141 33.1156 23.7686 33.185 23.7906C33.2928 23.8363 33.3076 23.8142 33.3386 23.5684C33.3533 23.4609 33.377 23.3461 33.408 23.2386L33.4095 23.2401ZM43.1536 13.7025C43.5464 13.6642 43.6158 13.6097 43.446 13.4346C43.3382 13.3271 43.0916 13.3197 42.8923 13.411C42.7608 13.4728 42.7313 13.4566 42.5231 13.2344C42.3075 12.9974 42.2928 12.9885 42.0225 13.0194C41.7759 13.0503 41.7376 13.043 41.7065 12.9429C41.6061 12.7736 41.491 12.6279 41.3522 12.4983C41.175 12.2996 40.9594 12.145 40.7143 12.0464C40.2373 11.8624 39.9686 11.8859 39.5138 12.1391C38.1981 12.8516 38.2527 12.8443 36.9829 12.5219C35.7986 12.223 34.9141 11.9168 34.6291 11.724C34.3914 11.5635 33.8834 11.3869 33.4597 11.3324C33.1437 11.2868 32.9443 11.356 32.6446 11.6003L32.4836 11.7314L32.6298 11.9846C32.8291 12.3379 32.807 12.3599 32.5072 12.0994C32.1839 11.8315 31.7999 11.6475 31.5534 11.6386C31.3762 11.6386 30.8534 11.8683 30.7914 11.9684C30.7678 11.9993 30.9302 12.0376 31.1458 12.0523C31.3688 12.0758 31.6759 12.1524 31.8841 12.2363C32.4231 12.4659 32.6992 12.5425 33.1909 12.5896C33.7299 12.6426 34.7059 12.5822 34.8211 12.4895C34.8831 12.4365 35.0514 12.4277 35.4058 12.4586C35.8754 12.4895 36.0674 12.5351 37.1822 12.834C37.829 13.0106 38.2823 12.9944 39.0516 12.7883C39.406 12.6882 39.8519 12.5896 40.0365 12.566C40.3525 12.5351 40.413 12.5513 40.9062 12.7736C41.6903 13.1269 42.1067 13.3492 42.3371 13.5553C42.5674 13.754 42.5984 13.754 43.1521 13.7084L43.1536 13.7025ZM38.7696 12.3614L39.2391 12.1156L39.2244 11.6401C39.217 11.3103 39.2007 10.988 39.186 10.6671L39.1476 10.1768L38.678 10.5375C38.4004 10.7524 38.1317 10.9129 38.0165 10.9364C37.6783 10.9983 36.0098 10.9364 35.8547 10.8525C35.6465 10.6994 35.4546 10.5301 35.2774 10.3461L34.8462 9.90893L34.8388 10.1695C34.8388 10.3079 34.824 10.5449 34.793 10.6906C34.7546 10.9674 34.7546 10.9747 35.0544 11.3501C35.2154 11.5577 35.3468 11.7417 35.3468 11.7637C35.3468 11.9095 37.5691 12.5999 38.0696 12.6073C38.2306 12.6073 38.4314 12.5381 38.7696 12.3614ZM37.8777 10.6199C38.4314 10.5125 38.7002 10.1135 38.9084 9.10223C39.1239 8.01289 39.2317 6.3038 39.1313 5.57513C39.0383 4.91563 38.3 4.62416 36.8928 4.6698C36.0157 4.70071 35.6539 4.78462 35.3542 5.03782C35.1696 5.19091 35.1696 5.20711 35.0854 5.93431C34.9318 7.32984 35.1622 9.31568 35.5624 10.0591C35.7543 10.4197 35.9241 10.5493 36.277 10.6111C36.6772 10.6803 37.5307 10.6803 37.8762 10.6185L37.8777 10.6199Z" fill="black"/>
<path d="M24.665 33.3606C26.6333 32.7939 29.21 31.129 31.3171 29.0445C32.0022 28.3615 32.0864 28.2702 32.178 27.964L32.3005 27.5724C32.3153 27.5415 32.1927 27.4885 32.0318 27.4502C31.6095 27.3501 31.2861 27.1058 31.2861 26.8835C31.2861 26.7525 31.2093 26.6229 30.9863 26.3844C30.6246 25.9782 30.533 25.8015 30.4946 25.4114L30.4636 25.0964L30.0324 24.7902C29.7858 24.6135 28.925 24.1381 28.0095 23.6788C27.3169 23.3417 26.6333 22.9736 25.9644 22.5747C25.1951 22.0609 24.6797 21.4471 24.3873 20.7199C24.3342 20.5741 24.2648 20.452 24.2412 20.452C24.1791 20.452 22.4486 22.1154 21.7102 22.8971C19.8881 24.8137 18.6345 26.4772 17.8415 28.0185C17.6422 28.4012 17.4266 28.8546 17.3646 29.0224L17.2494 29.3286L17.3882 29.8424C17.4724 30.1191 17.6496 30.571 17.7884 30.839C18.2727 31.7899 18.85 32.364 19.8039 32.8322C20.8272 33.3386 21.7339 33.5152 23.2489 33.4916C24.064 33.4843 24.3032 33.4607 24.6635 33.3533L24.665 33.3606Z" fill="#6ED140"/>
<path d="M44.2832 49.4151C44.5136 49.1384 44.4826 48.8557 44.1902 48.5334C44.0204 48.3641 43.8284 48.2183 43.6129 48.1035C43.3973 47.9887 43.1817 47.8577 42.9661 47.7208C42.7963 47.5986 42.2588 47.2836 41.7656 47.0156C41.4112 46.8243 41.0657 46.6241 40.7275 46.4106L40.5887 46.3032V44.1951C40.5887 42.118 40.5814 42.0871 40.4736 42.118C39.9346 42.2638 39.0427 42.333 37.9131 42.3094L36.6905 42.2947L36.8677 42.7245C37.1984 43.5371 37.3683 44.6265 37.3683 45.8763C37.3683 46.3444 37.3372 46.5122 37.2221 46.8419C37.1601 47.0024 37.1069 47.1643 37.0523 47.3248C37.0286 47.394 37.1143 47.447 37.4288 47.5397C37.6591 47.6089 37.9973 47.6781 38.1907 47.7002L38.5451 47.7384L38.5067 48.0917C38.4683 48.4907 38.5141 48.9117 38.6145 49.0427C38.6765 49.1192 38.9069 49.1502 39.976 49.1958C40.7837 49.2341 41.6608 49.318 42.3518 49.4181C42.9513 49.5108 43.5981 49.5874 43.79 49.5874C44.1134 49.5947 44.1444 49.58 44.2818 49.4181L44.2832 49.4151Z" fill="#6ED140"/>
<path d="M38.9379 40.2765C39.722 40.2073 40.6995 40.0395 40.8915 39.9394C40.9535 39.9084 41.0066 39.7936 41.0303 39.6626L41.0997 39.2563L41.138 39.0649L40.9461 39.1032C40.0926 39.2799 39.4459 39.3329 38.1538 39.3329C36.8928 39.3329 36.7466 39.3255 36.4158 39.2107C36.2933 39.1577 36.1545 39.1268 36.0157 39.1179C35.9625 39.1489 35.9537 39.5861 36.0009 39.8923C36.0319 40.0763 36.0629 40.1072 36.2475 40.1602C36.8322 40.3206 37.8171 40.3589 38.9394 40.2676L38.9379 40.2765Z" fill="#6ED140"/>
<path d="M39.4385 41.6102C40.038 41.5719 40.5843 41.4792 40.6921 41.3879C40.7379 41.357 40.7925 41.1965 40.8073 41.0346L40.8457 40.7431L40.3687 40.8506C39.9922 40.9271 39.6157 40.9728 39.2376 41.0037C38.3295 41.0419 37.4155 41.0184 36.5148 40.9271C36.215 40.8815 36.215 40.8815 36.3066 41.2716C36.3834 41.5631 36.3996 41.5778 37.1837 41.6322C37.7064 41.6779 38.4373 41.6705 39.437 41.6087L39.4385 41.6102Z" fill="#6ED140"/>
<path d="M9.1295 26.6362C10.4215 25.4938 12.2053 24.244 14.3907 22.9486C15.8215 22.0978 21.3514 19.3376 23.8971 18.21C24.3593 18.0024 24.7742 17.8111 24.82 17.789C24.8658 17.7581 24.9972 17.4283 25.1197 17.0603C25.6587 15.3586 25.9275 15.0215 26.9035 14.7992C27.0261 14.7683 27.0571 14.73 27.0571 14.6078C27.0571 14.3855 27.2106 13.8718 27.342 13.6421C27.4425 13.4655 27.4425 13.4581 27.3568 13.4817C27.3037 13.4964 26.9803 13.5891 26.6421 13.6892C21.9509 15.0391 17.8519 16.8321 14.3139 19.0712C10.5382 21.4633 8.36166 24.3309 7.73115 27.7653L7.68537 28.0185L8.14755 27.5665C8.39415 27.3133 8.84009 26.8997 9.13245 26.6465L9.1295 26.6362Z" fill="#6ED140"/>
<path d="M43.1536 13.7025C43.5464 13.6642 43.6158 13.6097 43.446 13.4346C43.3382 13.3271 43.0916 13.3197 42.8923 13.411C42.7608 13.4728 42.7313 13.4566 42.5231 13.2344C42.3075 12.9974 42.2928 12.9885 42.0225 13.0194C41.7759 13.0503 41.7376 13.043 41.7065 12.9429C41.6061 12.7736 41.491 12.6279 41.3522 12.4983C41.175 12.2996 40.9594 12.145 40.7143 12.0464C40.2373 11.8624 39.9686 11.8859 39.5138 12.1391C38.1981 12.8516 38.2527 12.8443 36.9829 12.5219C35.7986 12.223 34.9141 11.9168 34.6291 11.724C34.3914 11.5635 33.8834 11.3869 33.4597 11.3324C33.1437 11.2868 32.9443 11.356 32.6446 11.6003L32.4836 11.7314L32.6298 11.9846C32.8291 12.3379 32.807 12.3599 32.5072 12.0994C32.1839 11.8315 31.7999 11.6475 31.5534 11.6386C31.3762 11.6386 30.8534 11.8683 30.7914 11.9684C30.7678 11.9993 30.9302 12.0376 31.1458 12.0523C31.3688 12.0758 31.6759 12.1524 31.8841 12.2363C32.4231 12.4659 32.6992 12.5425 33.1909 12.5896C33.7299 12.6426 34.7059 12.5822 34.8211 12.4895C34.8831 12.4365 35.0514 12.4277 35.4058 12.4586C35.8754 12.4895 36.0674 12.5351 37.1822 12.834C37.829 13.0106 38.2823 12.9944 39.0516 12.7883C39.406 12.6882 39.8519 12.5896 40.0365 12.566C40.3525 12.5351 40.413 12.5513 40.9062 12.7736C41.6903 13.1269 42.1067 13.3492 42.3371 13.5553C42.5674 13.754 42.5984 13.754 43.1521 13.7084L43.1536 13.7025Z" fill="#6ED140"/>
</g>
</g>
</svg>
