<svg width="54" height="54" viewBox="0 0 54 54" fill="none" xmlns="http://www.w3.org/2000/svg">
<g id="icon-next">
<path id="Vector" d="M40.0752 50.6257C39.8744 50.732 39.8913 50.7658 40.0836 50.6679C40.1461 50.6426 40.1984 50.6071 40.2439 50.5649C40.2439 50.5295 40.2439 50.5295 40.0752 50.6257ZM40.4802 50.4063C40.384 50.4856 40.384 50.4856 40.4987 50.4333C40.5595 50.3979 40.6135 50.3641 40.6135 50.354C40.6135 50.3085 40.5865 50.3186 40.4802 50.4063ZM40.7434 50.2477C40.6472 50.327 40.6472 50.327 40.762 50.2747C40.8244 50.2393 40.8767 50.2022 40.8767 50.1937C40.8767 50.1515 40.8497 50.16 40.7434 50.2477ZM41.01 50.0908C40.9138 50.1701 40.9138 50.1701 41.0252 50.1161C41.0877 50.0823 41.14 50.0469 41.14 50.0368C41.14 49.9946 41.113 50.003 41.01 50.0908ZM41.3695 49.8528C41.1855 49.976 41.1214 50.0553 41.2901 49.9676C41.4032 49.8984 41.5956 49.7465 41.5618 49.7465C41.4893 49.7735 41.4285 49.8191 41.3678 49.8528H41.3695ZM25.2324 0.0124028C25.1092 0.02084 24.7397 0.054589 24.4157 0.0815881C16.7412 0.776816 9.56108 4.90769 5.01003 11.2711C2.49405 14.759 0.860598 18.8106 0.24468 23.0646C0.0269992 24.5496 0 24.9883 0 27.0014C0 29.0129 0.0269992 29.4449 0.24468 30.9298C1.71445 41.0731 8.92997 49.5879 18.7104 52.7434C20.4704 53.3054 22.3148 53.6935 24.4157 53.9314C25.2324 54.0192 28.7642 54.0192 29.581 53.9314C33.2123 53.5264 36.2784 52.6304 39.3125 51.083C39.7782 50.8467 39.8659 50.7843 39.8035 50.732C38.3186 48.7729 36.8606 46.8121 35.401 44.8344L31.0862 39.0076L25.6813 31.0007C23.8791 28.321 22.0701 25.6481 20.2325 22.9954C20.2139 22.9954 20.1903 26.5543 20.1802 30.8944C20.1616 38.4963 20.1616 38.8051 20.0654 38.9806C19.9693 39.1916 19.8106 39.3671 19.5997 39.4649C19.4326 39.5442 19.2825 39.5611 18.4843 39.5611H17.5714L17.3335 39.4126C17.185 39.3164 17.0618 39.1831 16.9825 39.0262L16.8677 38.7883L16.8762 28.2063L16.8947 17.6243L17.0618 17.4134C17.1681 17.2834 17.2997 17.1771 17.4482 17.0978C17.6693 16.9915 17.757 16.9746 18.6699 16.9746C19.7414 16.9746 19.9186 17.0168 20.2004 17.3256C22.3874 20.5858 24.5675 23.8543 26.7123 27.1331C30.2205 32.4519 35.0095 39.7096 37.3635 43.2701L41.6445 49.7482L41.8554 49.6082C43.9124 48.2363 45.7838 46.6028 47.3987 44.7399C50.8006 40.8453 53.0078 36.0546 53.7553 30.9416C53.973 29.4567 54 29.0162 54 27.0048C54 24.9917 53.973 24.5614 53.7553 23.0764C52.2856 12.9332 45.07 4.41833 35.2896 1.26111C33.4604 0.682319 31.5789 0.287457 29.6738 0.084963C29.1625 0.0326522 25.6728 -0.0297834 25.2341 0.0157777L25.2324 0.0124028ZM36.2801 16.3418C36.5349 16.4633 36.7273 16.6928 36.815 16.9561C36.8606 17.0978 36.869 20.0323 36.8606 26.642L36.842 36.1322L35.1732 33.5673L33.4941 31.0007V24.1108C33.4941 19.6442 33.5127 17.14 33.5363 17.0168C33.6156 16.735 33.808 16.4988 34.0645 16.3503C34.2737 16.244 34.3547 16.2355 35.19 16.2355C35.9713 16.2355 36.1046 16.244 36.2801 16.3418Z" fill="white"/>
</g>
</svg>
