<svg width="54" height="54" viewBox="0 0 54 54" fill="none" xmlns="http://www.w3.org/2000/svg">
<g id="icon-bootstrap">
<path id="Vector" d="M0 47.0372C0 50.8831 3.11735 54 6.96279 54H47.0372C50.8831 54 54 50.8827 54 47.0372V6.96279C54 3.11692 50.8827 0 47.0372 0H6.96279C3.11692 0 0 3.11735 0 6.96279L0 47.0372Z" fill="#563D7C"/>
<path id="Vector_2" d="M22.3926 23.8862V16.2389H29.124C29.7651 16.2389 30.3833 16.2924 30.9786 16.3992C31.5739 16.5061 32.1005 16.6969 32.5584 16.9716C33.0163 17.2464 33.3826 17.628 33.6574 18.1164C33.9321 18.6048 34.0695 19.2307 34.0695 19.9939C34.0695 21.3676 33.6574 22.3598 32.8331 22.9703C32.0089 23.5809 30.9557 23.8862 29.6735 23.8862H22.3926ZM15.2033 10.6523V43.3477H31.0472C32.5126 43.3477 33.9398 43.1645 35.3288 42.7982C36.7178 42.4318 37.9542 41.8671 39.0379 41.1039C40.1217 40.3407 40.9841 39.3561 41.6251 38.1503C42.2662 36.9444 42.5868 35.5173 42.5868 33.8688C42.5868 31.8234 42.0907 30.0757 41.0985 28.6256C40.1064 27.1755 38.6029 26.1605 36.588 25.5805C38.0534 24.8783 39.16 23.9778 39.908 22.8787C40.6559 21.7797 41.0298 20.406 41.0298 18.7575C41.0298 17.2311 40.778 15.9489 40.2743 14.911C39.7706 13.873 39.0608 13.0411 38.145 12.4153C37.2291 11.7895 36.1301 11.3392 34.848 11.0645C33.5658 10.7897 32.1463 10.6523 30.5893 10.6523H15.2033ZM22.3926 37.7611V28.7859H30.223C31.7799 28.7859 33.0316 29.1446 33.9779 29.862C34.9243 30.5794 35.3975 31.7776 35.3975 33.4566C35.3975 34.3114 35.2525 35.0136 34.9624 35.5631C34.6724 36.1126 34.2832 36.5476 33.7948 36.8681C33.3063 37.1887 32.7415 37.4176 32.1005 37.555C31.4594 37.6924 30.7878 37.7611 30.0856 37.7611H22.3926Z" fill="white"/>
</g>
</svg>
