<svg width="48" height="54" viewBox="0 0 48 54" fill="none" xmlns="http://www.w3.org/2000/svg">
<g id="icon-css">
<path id="Vector" d="M4.33157 48.6019L0 0H47.6126L43.2752 48.5942L23.7774 54L4.33157 48.6019Z" fill="#1572B6"/>
<path id="Vector_2" d="M23.8063 49.869L39.5627 45.5008L43.2694 3.97478H23.8063V49.869Z" fill="#33A9DC"/>
<path id="Vector_3" d="M23.8063 21.5826H31.6941L32.238 15.4787H23.8063V9.5175H23.8275H38.7527L38.61 11.1163L37.1462 27.5439H23.8063V21.5826Z" fill="white"/>
<path id="Vector_4" d="M23.8429 37.0633L23.8159 37.071L17.1778 35.2774L16.7535 30.5235H13.527H10.7691L11.6042 39.8829L23.814 43.2733L23.8429 43.2656V37.0633Z" fill="#EBEBEB"/>
<path id="Vector_5" d="M31.1869 27.2912L30.4695 35.2736L23.8217 37.0671V43.2694L36.0411 39.8829L36.1318 38.8761L37.1674 27.2912H31.1869Z" fill="white"/>
<g id="Group">
<path id="Vector_6" d="M23.8275 9.5175V13.2204V15.4633V15.4787H9.44808H9.42879L9.30922 14.1384L9.03729 11.1163L8.89458 9.5175H23.8275Z" fill="#EBEBEB"/>
<path id="Vector_7" d="M23.8063 21.5826V25.2855V27.5284V27.5439H17.2704H17.2511L17.1315 26.2035L16.8615 23.1814L16.7188 21.5826H23.8063Z" fill="#EBEBEB"/>
</g>
</g>
</svg>
