<svg width="54" height="54" viewBox="0 0 54 54" fill="none" xmlns="http://www.w3.org/2000/svg">
<g id="icon-ai">
<path id="Vector" d="M0 19.5428C0 12.7022 0 9.28189 1.33127 6.66912C2.5023 4.37086 4.37086 2.5023 6.66912 1.33127C9.28189 0 12.7022 0 19.5428 0H34.4572C41.2978 0 44.7182 0 47.3308 1.33127C49.6291 2.5023 51.4977 4.37086 52.6687 6.66912C54 9.28189 54 12.7022 54 19.5428V34.4572C54 41.2978 54 44.7182 52.6687 47.3308C51.4977 49.6291 49.6291 51.4977 47.3308 52.6687C44.7182 54 41.2978 54 34.4572 54H19.5428C12.7022 54 9.28189 54 6.66912 52.6687C4.37086 51.4977 2.5023 49.6291 1.33127 47.3308C0 44.7182 0 41.2978 0 34.4572V19.5428Z" fill="#330000"/>
<g id="Group">
<path id="Vector_2" d="M26.168 33.9357H17.8001L16.0976 39.3602C16.0503 39.5618 15.8648 39.7045 15.6629 39.6944H11.4245C11.1828 39.6944 11.0983 39.5583 11.171 39.2858L18.4159 17.8852C18.4884 17.6623 18.5609 17.4085 18.6333 17.1236C18.7282 16.6278 18.7766 16.124 18.7783 15.6189C18.7575 15.4697 18.8886 15.3378 19.0317 15.3587H24.7916C24.9603 15.3587 25.0568 15.4207 25.0813 15.5445L33.3045 39.323C33.3768 39.5708 33.3045 39.6946 33.0871 39.6944H28.3778C28.2127 39.7133 28.0549 39.6001 28.0156 39.4345L26.168 33.9357ZM19.1042 29.2543H24.8278C23.8875 26.0409 22.8262 22.8698 21.966 19.6315C21.038 22.8754 20.0255 26.1061 19.1042 29.2543Z" fill="#FF9A00"/>
<path id="Vector_3" d="M38.1944 19.2969C37.8249 19.3121 37.4565 19.2472 37.1131 19.1064C36.7698 18.9656 36.4593 18.7519 36.202 18.4796C35.9455 18.1953 35.7461 17.8621 35.6155 17.4985C35.485 17.1352 35.4257 16.7489 35.4412 16.3618C35.4281 15.9786 35.4938 15.5969 35.6342 15.2416C35.7748 14.8863 35.9868 14.5654 36.2564 14.2998C36.5233 14.0369 36.8384 13.831 37.1836 13.6939C37.5287 13.5568 37.8968 13.4912 38.2667 13.501C39.1363 13.501 39.8185 13.7672 40.3135 14.2998C40.5635 14.5765 40.7577 14.9011 40.8851 15.2549C41.0124 15.6087 41.0707 15.985 41.056 16.3618C41.0713 16.7502 41.0101 17.1381 40.8763 17.5018C40.7426 17.8655 40.5388 18.198 40.2773 18.4796C40.004 18.7559 39.6777 18.9712 39.3193 19.112C38.9608 19.2526 38.5778 19.3156 38.1944 19.2969ZM35.6948 39.3228V21.5634C35.6948 21.3404 35.791 21.229 35.9847 21.229H40.4404C40.6333 21.229 40.7299 21.3404 40.7301 21.5634V39.3228C40.7301 39.5708 40.6335 39.6946 40.4404 39.6944H36.0209C35.8036 39.6944 35.6948 39.5706 35.6948 39.3228Z" fill="#FF9A00"/>
</g>
</g>
</svg>
