<svg width="54" height="54" viewBox="0 0 54 54" fill="none" xmlns="http://www.w3.org/2000/svg">
<g id="icon-java">
<path id="Vector" d="M0 10C0 4.47715 4.47715 0 10 0H44C49.5228 0 54 4.47715 54 10V44C54 49.5228 49.5228 54 44 54H10C4.47715 54 0 49.5228 0 44V10Z" fill="white"/>
<g id="Group 1">
<path id="Vector_2" d="M21.1382 39.0271C21.1382 39.0271 19.4579 40.0049 22.3356 40.3348C25.8225 40.7332 27.6043 40.6761 31.4458 39.9499C31.4458 39.9499 32.4578 40.5826 33.8685 41.1311C25.2539 44.8217 14.3728 40.9172 21.1382 39.0271ZM20.085 34.2103C20.085 34.2103 18.1998 35.6058 21.08 35.904C24.8048 36.2886 27.7457 36.32 32.8371 35.34C32.8371 35.34 33.5396 36.0538 34.6461 36.4437C24.2327 39.4892 12.6343 36.6834 20.085 34.2103Z" fill="#0074BD"/>
<path id="Vector_3" d="M28.9582 26.0381C31.082 28.4827 28.4013 30.6804 28.4013 30.6804C28.4013 30.6804 33.7905 27.8989 31.316 24.4142C29.0041 21.166 27.2317 19.5526 36.8273 13.9875C36.8273 13.9878 21.7649 17.7486 28.9582 26.0381Z" fill="#EA2D2E"/>
<path id="Vector_4" d="M40.3511 42.5904C40.3511 42.5904 41.5951 43.6162 38.9806 44.409C34.0098 45.9148 18.2872 46.3688 13.9206 44.4692C12.3516 43.7861 15.2949 42.839 16.2209 42.6391C17.1864 42.4301 17.7377 42.4681 17.7377 42.4681C15.9918 41.239 6.45338 44.8827 12.8934 45.9278C30.4549 48.7746 44.9057 44.6458 40.3511 42.5904ZM21.9472 29.2187C21.9472 29.2187 13.9505 31.1182 19.1156 31.8088C21.2968 32.1006 25.643 32.0337 29.6942 31.6939C33.0041 31.4158 36.3257 30.8218 36.3257 30.8218C36.3257 30.8218 35.1596 31.322 34.315 31.898C26.1929 34.0344 10.5063 33.0393 15.0228 30.8553C18.841 29.0086 21.9472 29.2187 21.9472 29.2187ZM36.2925 37.2368C44.5482 32.948 40.7307 28.8263 38.0663 29.3815C37.4149 29.5172 37.1226 29.6353 37.1226 29.6353C37.1226 29.6353 37.3652 29.255 37.8276 29.0914C43.0984 27.2391 47.1514 34.5561 36.1276 37.4543C36.1276 37.4536 36.2541 37.339 36.2925 37.2368Z" fill="#0074BD"/>
<path id="Vector_5" d="M31.316 5C31.316 5 35.8872 9.57393 26.9793 16.6051C19.8357 22.2471 25.3505 25.4632 26.9769 29.1394C22.8065 25.3772 19.7476 22.0648 21.7995 18.9823C24.8126 14.4584 33.1599 12.2642 31.316 5Z" fill="#EA2D2E"/>
<path id="Vector_6" d="M22.7586 48.862C30.6812 49.3685 42.8506 48.58 43.1386 44.8309C43.1386 44.8309 42.5848 46.2521 36.5904 47.3797C29.8274 48.6529 21.4847 48.5045 16.5381 47.6878C16.5381 47.6882 17.5516 48.5271 22.7586 48.862Z" fill="#0074BD"/>
</g>
</g>
</svg>
