<svg width="54" height="54" viewBox="0 0 54 54" fill="none" xmlns="http://www.w3.org/2000/svg">
<g id="icon-scss">
<path id="Vector" fill-rule="evenodd" clip-rule="evenodd" d="M27 0C32.3401 0 37.5603 1.58352 42.0004 4.55032C46.4405 7.51712 49.9012 11.7339 51.9447 16.6675C53.9883 21.6011 54.523 27.0299 53.4812 32.2674C52.4394 37.5049 49.8679 42.3159 46.0919 46.0919C42.3159 49.8679 37.5049 52.4394 32.2674 53.4812C27.0299 54.523 21.6011 53.9883 16.6675 51.9447C11.7339 49.9012 7.51712 46.4405 4.55032 42.0004C1.58352 37.5603 0 32.3401 0 27C0 19.8392 2.84463 12.9716 7.90811 7.90811C12.9716 2.84463 19.8392 0 27 0Z" fill="#CC6699"/>
<path id="Vector_2" d="M43.9367 11.556C42.714 6.76157 34.7625 5.19172 27.2372 7.857C22.5244 9.44065 18.1702 11.9382 14.4238 15.2068C10.2793 19.0832 9.61778 22.4582 9.88971 23.868C10.854 28.8437 17.6676 32.0953 20.4699 34.5079V34.5214C19.6444 34.9284 13.5964 37.9929 12.177 41.1171C10.6843 44.4189 12.4142 46.7871 13.5617 47.1053C15.2845 47.5201 17.094 47.3851 18.7362 46.7193C20.3784 46.0535 21.771 44.8903 22.7186 43.3929C23.5017 42.1796 23.9916 40.8008 24.1496 39.3654C24.3076 37.9301 24.1293 36.4777 23.6289 35.1231C24.9786 34.7802 26.3817 34.6996 27.7618 34.8859C32.4983 35.4394 33.4279 38.3959 33.2505 39.6341C33.167 40.0748 32.9897 40.4924 32.7304 40.8584C32.4712 41.2245 32.1362 41.5305 31.7481 41.7555C31.4164 41.9618 31.3142 42.0313 31.3431 42.1856C31.3836 42.4074 31.536 42.3996 31.8195 42.3514C32.5313 42.1272 33.1585 41.6927 33.6184 41.105C34.0783 40.5174 34.3495 39.8042 34.3961 39.0594C34.5098 36.1665 31.7308 32.9149 26.8091 32.9979C25.3796 32.957 23.9532 33.1525 22.5874 33.5764C22.5199 33.4993 22.4505 33.4221 22.3791 33.345C19.3359 30.0992 13.7121 27.8023 13.9494 23.4379C14.0361 21.8507 14.5877 17.6734 24.7494 12.6051C33.0808 8.45293 39.7498 9.59657 40.9031 12.1288C42.5501 15.7468 37.3391 22.4679 28.6875 23.4379C27.7313 23.632 26.7436 23.6084 25.7978 23.3687C24.8519 23.1289 23.9722 22.6793 23.2239 22.0532C22.7687 21.5518 22.7012 21.5306 22.5315 21.6231C22.2557 21.7755 22.4312 22.2191 22.5315 22.4814C22.8628 23.0784 23.3099 23.6033 23.8468 24.0252C24.3836 24.4471 24.9993 24.7576 25.6577 24.9384C29.0593 25.6775 32.6072 25.3266 35.7981 23.9355C41.0458 21.9124 45.1382 16.2714 43.9367 11.556ZM21.6347 35.9929C22.0178 37.3134 21.9983 38.7181 21.5788 40.0275C21.5338 40.1638 21.4843 40.2988 21.4303 40.4325C21.3763 40.5662 21.3178 40.6948 21.2548 40.8182C20.9302 41.4823 20.5098 42.0951 20.007 42.6369C18.4391 44.3475 16.2463 44.9955 15.3071 44.4497C14.2926 43.8615 14.7999 41.4489 16.6185 39.5261C18.0159 38.1442 19.627 36.9968 21.3898 36.1279L21.6347 35.9929Z" fill="white"/>
</g>
</svg>
