<svg width="54" height="54" viewBox="0 0 54 54" fill="none" xmlns="http://www.w3.org/2000/svg">
<g id="icon-VS">
<path id="Vector" d="M7.80187 42.2732C7.15669 42.8245 6.25621 42.9659 5.47312 42.6388L1.38375 40.9232C0.549833 40.5753 0.00489974 39.7624 0 38.8588V14.8626C0.00489974 13.959 0.549833 13.146 1.38375 12.7982L5.47312 11.1107C6.25621 10.7836 7.15669 10.925 7.80187 11.4763L8.71875 12.2357C8.33964 11.9631 7.83979 11.926 7.42458 12.1396C7.00937 12.3531 6.74882 12.7813 6.75 13.2482V40.4732C6.74882 40.9401 7.00937 41.3683 7.42458 41.5818C7.83979 41.7953 8.33964 41.7582 8.71875 41.4857L7.80187 42.2732Z" fill="#52218A"/>
<path id="Vector_2" d="M1.38375 40.9232C0.549833 40.5753 0.00489974 39.7623 0 38.8588V38.6732C0.00567283 39.2045 0.33432 39.6789 0.829809 39.8709C1.3253 40.0629 1.88777 39.9338 2.25 39.5451L37.125 0.985676C38.137 -0.0213279 39.6732 -0.282613 40.9612 0.333176L52.0875 5.68818C53.257 6.25051 54.0006 7.4336 54 8.7313V8.86068C53.9993 8.03727 53.5245 7.28789 52.7802 6.93561C52.036 6.58333 51.1554 6.69113 50.5181 7.21255L8.71875 41.4857L7.80188 42.2732C7.15669 42.8245 6.25621 42.9658 5.47313 42.6388L1.38375 40.9232Z" fill="#6C33AF"/>
<path id="Vector_3" d="M1.38375 12.7982C0.549833 13.146 0.00489974 13.959 0 14.8626V15.0482C0.00567283 14.5168 0.33432 14.0425 0.829809 13.8505C1.3253 13.6585 1.88777 13.7875 2.25 14.1763L37.125 52.7357C38.137 53.7427 39.6732 54.004 40.9612 53.3882L52.0875 48.0332C53.257 47.4709 54.0006 46.2878 54 44.9901V44.8607C53.9993 45.6841 53.5245 46.4335 52.7802 46.7858C52.036 47.138 51.1554 47.0302 50.5181 46.5088L8.71875 12.2357L7.80188 11.4482C7.151 10.9064 6.25103 10.776 5.47313 11.1107L1.38375 12.7982Z" fill="#854CC7"/>
<path id="Vector_4" d="M40.9612 53.3882C39.6732 54.004 38.137 53.7427 37.125 52.7357C37.6918 53.2984 38.5412 53.4655 39.2789 53.1593C40.0167 52.8532 40.4982 52.1338 40.5 51.3351V2.39756C40.5027 1.5968 40.0229 0.873224 39.2841 0.564189C38.5454 0.255153 37.6933 0.421504 37.125 0.985685C38.137 -0.0213184 39.6732 -0.282603 40.9612 0.333185L52.0875 5.68256C53.257 6.2449 54.0006 7.42799 54 8.72568V44.9957C54.0006 46.2934 53.257 47.4765 52.0875 48.0388L40.9612 53.3882Z" fill="#B179F1"/>
<path id="Vector_5" d="M38.7506 53.6357C39.4943 53.8054 40.2735 53.7181 40.9612 53.3882L52.0875 48.0388C53.257 47.4765 54.0006 46.2934 54 44.9957V8.72569C54.0006 7.42799 53.257 6.2449 52.0875 5.68256L40.9612 0.333186C40.174 -0.0452368 39.2707 -0.103709 38.4413 0.170061C37.9452 0.336251 37.4946 0.615475 37.125 0.985686L19.1925 20.8194L8.71875 12.2357L7.80188 11.4482C7.24218 10.9696 6.48374 10.7953 5.77125 10.9813C5.66846 11.004 5.56848 11.038 5.47313 11.0826L1.38375 12.7982C0.60338 13.1204 0.0690682 13.8524 0 14.6938V14.8626V38.8588V39.0276C0.0690682 39.869 0.60338 40.601 1.38375 40.9232L5.47313 42.6107C5.56848 42.6553 5.66846 42.6892 5.77125 42.7119C6.48374 42.898 7.24218 42.7236 7.80188 42.2451L8.71875 41.4857L19.1925 32.9019L37.125 52.7357C37.572 53.1819 38.1352 53.4937 38.7506 53.6357ZM40.5 15.4307L26.5556 26.8607L40.5 38.2907V15.4307ZM6.75 19.1376L13.7306 26.8607L6.75 34.5838V19.1376Z" fill="url(#paint0_linear_2_183)" fill-opacity="0.25"/>
</g>
<defs>
<linearGradient id="paint0_linear_2_183" x1="6912" y1="0.335696" x2="6912" y2="13752.3" gradientUnits="userSpaceOnUse">
<stop stop-color="white"/>
<stop offset="1" stop-color="white" stop-opacity="0"/>
</linearGradient>
</defs>
</svg>
