<svg width="48" height="54" viewBox="0 0 48 54" fill="none" xmlns="http://www.w3.org/2000/svg">
<g id="icon-html">
<path id="Vector" d="M4.3335 48.6019L0 0H47.6164L43.2771 48.5942L23.7793 54L4.3335 48.6019Z" fill="#E44F26"/>
<path id="Vector_2" d="M23.8082 49.869L39.5646 45.5008L43.2714 3.97479H23.8082V49.869Z" fill="#F1662A"/>
<path id="Vector_3" d="M23.8082 21.9992H15.9204L15.3765 15.8953H23.8082V9.93407H23.787H8.86179L9.0045 11.5348L10.4683 27.9604H23.8082V21.9992Z" fill="#EBEBEB"/>
<path id="Vector_4" d="M23.8082 37.4799L23.7812 37.4876L17.1431 35.6959L16.7188 30.942H13.4923H10.7344L11.5695 40.2994L23.7812 43.6899L23.8082 43.6821V37.4799Z" fill="#EBEBEB"/>
<g id="Group">
<path id="Vector_5" d="M23.787 21.9992V27.9604H31.1271L30.4367 35.6921L23.787 37.4856V43.6879L36.0084 40.2994L36.0971 39.2927L37.4972 23.5999L37.6438 21.9992H36.0373H23.787Z" fill="white"/>
<path id="Vector_6" d="M23.787 9.93407V13.6369V15.8818V15.8953H38.1664H38.1857L38.3053 14.5569L38.5772 11.5348L38.7199 9.93407H23.787Z" fill="white"/>
</g>
</g>
</svg>
