<svg width="54" height="33" viewBox="0 0 54 33" fill="none" xmlns="http://www.w3.org/2000/svg">
<g id="icon-Tailwind">
<path id="Vector" d="M27 0C19.8 0 15.3 3.6 13.5 10.8C16.2 7.2 19.35 5.85 22.95 6.75C25.004 7.2635 26.4721 8.7536 28.0971 10.4031C30.7443 13.0901 33.8081 16.2 40.5 16.2C47.7 16.2 52.2 12.6 54 5.4C51.3 9 48.15 10.35 44.55 9.45C42.496 8.9365 41.0279 7.4464 39.4029 5.7969C36.7557 3.1099 33.6919 0 27 0ZM13.5 16.2C6.3 16.2 1.8 19.8 0 27C2.7 23.4 5.85 22.05 9.45 22.95C11.504 23.4635 12.9721 24.9536 14.5971 26.6031C17.2443 29.2901 20.3081 32.4 27 32.4C34.2 32.4 38.7 28.8 40.5 21.6C37.8 25.2 34.65 26.55 31.05 25.65C28.996 25.1365 27.5279 23.6464 25.9029 21.9969C23.2557 19.3099 20.1919 16.2 13.5 16.2Z" fill="url(#paint0_linear_2_231)"/>
</g>
<defs>
<linearGradient id="paint0_linear_2_231" x1="-384" y1="1596.67" x2="12847.5" y2="6185.99" gradientUnits="userSpaceOnUse">
<stop stop-color="#2298BD"/>
<stop offset="1" stop-color="#0ED7B5"/>
</linearGradient>
</defs>
</svg>
