<svg width="54" height="49" viewBox="0 0 54 49" fill="none" xmlns="http://www.w3.org/2000/svg">
<g id="icon-react">
<path id="Vector" d="M44.3988 15.5722C43.8387 15.3794 43.2582 15.1969 42.6605 15.0244C42.7588 14.6235 42.8489 14.2278 42.9291 13.8388C44.245 7.45134 43.3846 2.3056 40.4467 0.611401C37.6296 -1.01311 33.0225 0.680703 28.3696 4.73002C27.9222 5.11939 27.4735 5.53165 27.025 5.96371C26.7262 5.67785 26.4278 5.4016 26.1302 5.13737C21.2538 0.80758 16.3659 -1.01705 13.4309 0.682048C10.6166 2.31127 9.78312 7.14876 10.9676 13.2022C11.082 13.7869 11.2157 14.3839 11.3669 14.991C10.6751 15.1874 10.0073 15.3968 9.36826 15.6195C3.65119 17.6127 0 20.7366 0 23.9768C0 27.3234 3.91955 30.6801 9.87433 32.7154C10.3443 32.876 10.8319 33.0279 11.3344 33.1721C11.1713 33.8287 11.0294 34.4721 10.9103 35.0997C9.78091 41.048 10.6629 45.7712 13.4698 47.3902C16.369 49.0621 21.2348 47.3435 25.9728 43.2019C26.3473 42.8746 26.7231 42.5274 27.0996 42.1635C27.5876 42.6334 28.0748 43.0781 28.5594 43.4953C33.1488 47.4446 37.6814 49.0393 40.4857 47.4158C43.3821 45.7391 44.3234 40.6653 43.1013 34.4921C43.008 34.0206 42.8994 33.539 42.7774 33.0488C43.1191 32.9478 43.4546 32.8435 43.7817 32.735C49.9722 30.684 54 27.3681 54 23.9768C54 20.7248 50.2311 17.5799 44.3988 15.5722ZM43.0561 30.5453C42.7609 30.6431 42.4579 30.7376 42.1492 30.8292C41.4658 28.6656 40.5434 26.365 39.4147 23.9881C40.4918 21.6678 41.3785 19.3966 42.0428 17.2471C42.5952 17.4069 43.1313 17.5755 43.648 17.7534C48.645 19.4737 51.6931 22.0171 51.6931 23.9768C51.6931 26.0644 48.4012 28.7743 43.0561 30.5453ZM40.8383 34.9401C41.3787 37.6698 41.4559 40.1378 41.0979 42.0671C40.7763 43.8007 40.1295 44.9565 39.3298 45.4194C37.628 46.4044 33.9887 45.124 30.0639 41.7466C29.614 41.3594 29.1608 40.946 28.7061 40.5085C30.2277 38.8444 31.7484 36.9098 33.2326 34.7612C35.8431 34.5296 38.3094 34.1509 40.546 33.6339C40.6561 34.0782 40.754 34.514 40.8383 34.9401ZM18.4098 45.2492C16.7471 45.8364 15.4229 45.8532 14.6224 45.3916C12.9191 44.4092 12.211 40.6169 13.1769 35.5299C13.2875 34.9473 13.4192 34.3489 13.571 33.7372C15.7831 34.2263 18.2313 34.5783 20.8481 34.7905C22.3423 36.8929 23.9069 38.8253 25.4836 40.5174C25.1391 40.85 24.796 41.1666 24.4548 41.465C22.3596 43.2963 20.2601 44.5957 18.4098 45.2492ZM10.6204 30.5326C7.98732 29.6326 5.81281 28.4629 4.32229 27.1866C2.98297 26.0396 2.30677 24.9008 2.30677 23.9768C2.30677 22.0105 5.23831 19.5025 10.1276 17.7978C10.7209 17.591 11.3419 17.396 11.9864 17.2129C12.6621 19.411 13.5485 21.7091 14.6182 24.033C13.5347 26.3914 12.6356 28.7261 11.9533 30.9499C11.4938 30.8178 11.0487 30.6789 10.6204 30.5326ZM13.2315 12.7591C12.2167 7.57274 12.8907 3.6603 14.5867 2.67854C16.3932 1.63267 20.3881 3.12386 24.5985 6.86242C24.8676 7.10137 25.1378 7.35148 25.4087 7.61023C23.8398 9.29491 22.2895 11.2129 20.8086 13.3029C18.2689 13.5383 15.8379 13.9164 13.6027 14.4228C13.4622 13.8575 13.3377 13.3021 13.2315 12.7591ZM36.5247 18.5108C35.9903 17.5879 35.4418 16.6868 34.8826 15.8103C36.6055 16.0281 38.2562 16.3172 39.8065 16.671C39.341 18.1626 38.761 19.7221 38.0781 21.3209C37.5883 20.3909 37.0702 19.4533 36.5247 18.5108ZM27.0258 9.25887C28.0898 10.4116 29.1554 11.6987 30.2035 13.0951C29.1473 13.0452 28.0781 13.0192 27 13.0192C25.9321 13.0192 24.8708 13.0446 23.8211 13.0936C24.8703 11.7102 25.9451 10.4249 27.0258 9.25887ZM17.466 18.5268C16.9323 19.4523 16.4238 20.3849 15.9417 21.3191C15.2699 19.726 14.6952 18.1593 14.2257 16.6466C15.7664 16.3018 17.4094 16.0199 19.1214 15.8062C18.5543 16.6908 18.0012 17.5988 17.466 18.5268ZM19.1707 32.312C17.4019 32.1147 15.7342 31.8473 14.1939 31.512C14.6709 29.9723 15.2583 28.3722 15.9443 26.7447C16.4276 27.6783 16.9381 28.6112 17.4752 29.5388C18.0222 30.4837 18.589 31.4094 19.1707 32.312ZM27.0896 38.8575C25.9962 37.6778 24.9057 36.3729 23.8406 34.9692C24.8745 35.0098 25.9287 35.0306 27 35.0306C28.1007 35.0306 29.1887 35.0058 30.2597 34.9581C29.2081 36.387 28.1464 37.6939 27.0896 38.8575ZM38.1001 26.6617C38.8219 28.3068 39.4303 29.8986 39.9134 31.4121C38.3477 31.7692 36.6573 32.0569 34.8762 32.2707C35.4368 31.3824 35.9901 30.4658 36.5339 29.5229C37.084 28.569 37.6063 27.6137 38.1001 26.6617ZM34.5357 28.3705C33.6915 29.8341 32.8249 31.2313 31.9451 32.5501C30.3427 32.6647 28.6873 32.7237 27 32.7237C25.3195 32.7237 23.6849 32.6715 22.1109 32.5693C21.1956 31.2332 20.3102 29.8319 19.4715 28.383C18.6349 26.9382 17.8652 25.4811 17.1676 24.0322C17.865 22.5799 18.6329 21.1212 19.4646 19.679C20.2986 18.2329 21.176 16.8386 22.0828 15.5108C23.6888 15.3895 25.3356 15.3261 26.9999 15.3261C28.6717 15.3261 30.3207 15.3899 31.9262 15.5124C32.8192 16.8305 33.6909 18.2205 34.5281 19.6668C35.3748 21.1293 36.1526 22.5783 36.856 23.9994C36.1547 25.445 35.3786 26.9086 34.5357 28.3705ZM39.2944 2.60991C41.1027 3.65271 41.8059 7.85831 40.6698 13.3732C40.5973 13.725 40.5157 14.0835 40.4271 14.4467C38.1867 13.9298 35.754 13.5451 33.2069 13.3062C31.7231 11.1932 30.1855 9.27223 28.6421 7.60917C29.057 7.20999 29.4714 6.82936 29.8841 6.47016C33.8707 3.00073 37.5968 1.63094 39.2944 2.60991ZM27 19.1548C29.6631 19.1548 31.822 21.3137 31.822 23.9768C31.822 26.6399 29.6631 28.7989 27 28.7989C24.3369 28.7989 22.178 26.6399 22.178 23.9768C22.178 21.3137 24.3369 19.1548 27 19.1548Z" fill="#00D8FF"/>
</g>
</svg>
